<svg xmlns="http://www.w3.org/2000/svg" xmlns:xlink="http://www.w3.org/1999/xlink" fill="none" version="1.1" width="16" height="16" viewBox="0 0 16 16"><defs><clipPath id="master_svg0_206_3012"><rect x="0" y="0" width="16" height="16" rx="0"/></clipPath></defs><g clip-path="url(#master_svg0_206_3012)"><g><path d="M13.248953945358277,9.25C13.248953945358277,9.25,2.3755166853582765,9.25,2.3755166853582765,9.25C2.3067666813582766,9.25,2.2505166873482763,9.3062506,2.2505166873482763,9.375C2.2505166873482763,9.375,2.2505166873482763,10.3125,2.2505166873482763,10.3125C2.2505166873482763,10.3812499,2.3067666813582766,10.4375,2.3755166853582765,10.4375C2.3755166853582765,10.4375,11.831766845358276,10.4375,11.831766845358276,10.4375C11.831766845358276,10.4375,9.577079545358277,13.296875,9.577079545358277,13.296875C9.513016445358275,13.378126,9.570829145358276,13.5,9.675516345358275,13.5C9.675516345358275,13.5,10.808329345358276,13.5,10.808329345358276,13.5C10.884892245358277,13.5,10.956766845358276,13.465626,11.005203945358277,13.404689C11.005203945358277,13.404689,13.642702945358277,10.0593748,13.642702945358277,10.0593748C13.900514945358276,9.7312498,13.667703945358276,9.25,13.248953945358277,9.25C13.248953945358277,9.25,13.248953945358277,9.25,13.248953945358277,9.25ZM13.625516945358276,5.5625C13.625516945358276,5.5625,4.169266345358277,5.5625,4.169266345358277,5.5625C4.169266345358277,5.5625,6.423954245358276,2.703125,6.423954245358276,2.703125C6.488016845358277,2.62187501,6.430204145358276,2.5,6.325516445358276,2.5C6.325516445358276,2.5,5.192703745358276,2.5,5.192703745358276,2.5C5.116141545358277,2.5,5.0442669453582765,2.534375094,4.995829345358276,2.595312595C4.995829345358276,2.595312595,2.3583290853582763,5.9406251999999995,2.3583290853582763,5.9406251999999995C2.1005166053582762,6.2687501999999995,2.333329200358276,6.75,2.7505167153582764,6.75C2.7505167153582764,6.75,13.625516945358276,6.75,13.625516945358276,6.75C13.694265945358277,6.75,13.750516945358276,6.6937504,13.750516945358276,6.625C13.750516945358276,6.625,13.750516945358276,5.6875,13.750516945358276,5.6875C13.750516945358276,5.6187501,13.694265945358277,5.5625,13.625516945358276,5.5625Z" fill="#524FFF" fill-opacity="1"/></g></g></svg>