<svg width="32" height="32" viewBox="0 0 32 32" fill="none" xmlns="http://www.w3.org/2000/svg">
<path d="M24.707 23.1027V10.7277H14.6244V8.89512H7.2918V23.1027H24.707ZM24.707 24.9354H7.28965C6.27773 24.9354 5.45703 24.1146 5.45703 23.1027V8.89512C5.45703 7.8832 6.27773 7.0625 7.28965 7.0625H14.6244C15.6363 7.0625 16.457 7.8832 16.457 8.89512H24.707C25.7189 8.89512 26.5396 9.71582 26.5396 10.7277V23.1027C26.5418 24.1146 25.7211 24.9354 24.707 24.9354Z" fill="white"/>
<path d="M11.9045 16.3348H10.3275C9.82051 16.3348 9.41016 15.9244 9.41016 15.4174C9.41016 14.9104 9.82051 14.5 10.3275 14.5H11.9045C12.4115 14.5 12.8219 14.9104 12.8219 15.4174C12.8219 15.9244 12.4094 16.3348 11.9045 16.3348ZM11.9045 19.7852H10.3275C9.82051 19.7852 9.41016 19.3748 9.41016 18.8678C9.41016 18.3607 9.82051 17.9504 10.3275 17.9504H11.9045C12.4115 17.9504 12.8219 18.3607 12.8219 18.8678C12.8219 19.3748 12.4094 19.7852 11.9045 19.7852ZM21.0439 16.3348H15.6857C15.1787 16.3348 14.7684 15.9244 14.7684 15.4174C14.7684 14.9104 15.1787 14.5 15.6857 14.5H21.0439C21.551 14.5 21.9613 14.9104 21.9613 15.4174C21.9613 15.9244 21.5488 16.3348 21.0439 16.3348ZM21.0439 19.7852H15.6857C15.1787 19.7852 14.7684 19.3748 14.7684 18.8678C14.7684 18.3607 15.1787 17.9504 15.6857 17.9504H21.0439C21.551 17.9504 21.9613 18.3607 21.9613 18.8678C21.9613 19.3748 21.5488 19.7852 21.0439 19.7852Z" fill="white"/>
</svg>
