<svg width="40" height="40" viewBox="0 0 40 40" fill="none" xmlns="http://www.w3.org/2000/svg">
<rect width="40" height="40" fill="#FBD1AA"/>
<path d="M29.7383 17.1117C29.657 17.1117 29.5789 17.0805 29.5164 17.0211L20.6539 8.15859C20.2945 7.79922 19.707 7.79922 19.3445 8.15859L10.4852 17.018C10.3633 17.1398 10.1664 17.1398 10.0445 17.018C9.92266 16.8961 9.92266 16.6992 10.0445 16.5773L18.907 7.71797C19.5102 7.11484 20.4945 7.11484 21.0977 7.71797L29.9602 16.5805C30.082 16.7023 30.082 16.8992 29.9602 17.0211C29.8977 17.0805 29.8195 17.1117 29.7383 17.1117Z" fill="#EB866B"/>
<path d="M8.83125 12.1328H31.1656C31.7031 12.1328 32.1375 12.5672 32.1375 13.1047V29.0109C32.1375 29.5484 31.7031 29.9828 31.1656 29.9828H8.83125C8.29375 29.9828 7.85938 29.5484 7.85938 29.0109V13.1047C7.8625 12.5672 8.29688 12.1328 8.83125 12.1328Z" fill="#FBD1AA"/>
<path d="M32.1359 13.1047V29.0109C32.1359 29.5484 31.7016 29.9828 31.1641 29.9828H29.1953C29.7328 29.9828 30.1672 29.5484 30.1672 29.0109V13.1047C30.1672 12.5672 29.7328 12.1328 29.1953 12.1328H31.1641C31.7016 12.1328 32.1359 12.5672 32.1359 13.1047Z" fill="#F7BD81"/>
<path d="M9.80469 14.0781H30.1984V28.0438H9.80469V14.0781Z" fill="#414649"/>
<path d="M9.80469 14.0781H30.1984V28.0438H9.80469V14.0781Z" fill="#BD9EE2"/>
<path d="M12.7375 26H15.775C16.2781 26 16.6844 26.4062 16.6844 26.9094V28.0469H11.8281V26.9094C11.8281 26.4062 12.2344 26 12.7375 26Z" fill="#50E6CC"/>
<path d="M28.2266 14.0781H30.1953V28.0438H28.2266V14.0781Z" fill="#978CDB"/>
<path d="M16.6859 26.9016V28.0391H15.1203V26.9016C15.1203 26.4016 14.7141 25.9922 14.2109 25.9922H15.7766C16.2797 25.9953 16.6859 26.4016 16.6859 26.9016Z" fill="#45DABD"/>
<path d="M32.1437 29.9859H7.85625C7.31563 29.9859 6.875 29.5422 6.875 29.0047C6.875 28.4641 7.31875 28.0234 7.85625 28.0234H32.1406C32.6812 28.0234 33.1219 28.4672 33.1219 29.0047C33.125 29.5422 32.6812 29.9859 32.1437 29.9859Z" fill="#EB866B"/>
<path d="M15.8125 23.8922H14.8281V20.6422H14.1562L14.2156 19.8359H15.8125V23.8922Z" fill="#8ADCFF"/>
<path d="M18.8844 23.0891H20.8437V23.8422H18.0156V21.5578L19.9563 21.3609L19.9344 20.5891H18.0781V19.8359H20.8437L20.9031 22.0484L18.8875 22.2516V23.0891H18.8844Z" fill="#FDF17F"/>
<path d="M25.843 23.8906H23.043V23.0781H24.9148V22.1906H23.3117V21.3781H24.918V20.6406H23.0805V19.8281H25.843V23.8906Z" fill="#FFB8CB"/>
<path d="M19.699 9.1444C19.8066 9.18352 19.9208 9.20107 20.0352 9.19603C20.1496 9.191 20.2619 9.16348 20.3656 9.11506C20.4694 9.06663 20.5626 8.99825 20.6399 8.91381C20.7172 8.82936 20.7772 8.73052 20.8163 8.62291C20.8554 8.51531 20.8729 8.40105 20.8679 8.28667C20.8629 8.17228 20.8354 8.06001 20.7869 7.95625C20.7385 7.8525 20.6701 7.7593 20.5857 7.68198C20.5012 7.60466 20.4024 7.54472 20.2948 7.5056C20.1872 7.46648 20.0729 7.44893 19.9585 7.45397C19.8442 7.459 19.7319 7.48652 19.6281 7.53494C19.5244 7.58337 19.4312 7.65175 19.3539 7.73619C19.2765 7.82064 19.2166 7.91948 19.1775 8.02709C19.1384 8.13469 19.1208 8.24895 19.1258 8.36333C19.1309 8.47772 19.1584 8.58999 19.2068 8.69375C19.2552 8.7975 19.3236 8.8907 19.4081 8.96802C19.4925 9.04534 19.5914 9.10528 19.699 9.1444Z" fill="#889CA9"/>
<path d="M33.125 28.9969C33.125 29.2688 33.0156 29.5125 32.8375 29.6906C32.6594 29.8688 32.4125 29.9781 32.1437 29.9781H30.1562C30.425 29.9781 30.6719 29.8688 30.85 29.6906C31.0281 29.5125 31.1375 29.2656 31.1375 28.9969C31.1375 28.4563 30.6969 28.0156 30.1562 28.0156H32.1406C32.6812 28.0156 33.125 28.4594 33.125 28.9969Z" fill="#DA6749"/>
<path d="M20.875 8.32344C20.875 8.80469 20.4844 9.19531 20 9.19531C19.8844 9.19531 19.7719 9.17344 19.6719 9.12969C19.9906 8.99844 20.2156 8.68594 20.2156 8.32031C20.2156 7.95469 19.9906 7.64219 19.6719 7.51094C19.7719 7.47031 19.8844 7.44531 20 7.44531C20.4812 7.44844 20.875 7.83906 20.875 8.32344Z" fill="#73859E"/>
<path d="M32.45 27.7444V13.1038C32.45 12.3944 31.875 11.8194 31.1656 11.8194H8.83125C8.12813 11.8194 7.55 12.3944 7.54688 13.1038V27.7444C6.98125 27.885 6.5625 28.3944 6.5625 29.0007C6.5625 29.7132 7.14375 30.2944 7.85625 30.2944H32.1437C32.4875 30.2944 32.8125 30.16 33.0594 29.9132C33.3031 29.6663 33.4375 29.3444 33.4344 29.0007C33.4344 28.3944 33.0156 27.885 32.45 27.7444ZM8.83125 12.4444H31.1656C31.5281 12.4444 31.825 12.7413 31.825 13.1038V27.7069H30.5094V14.0757C30.5094 13.9038 30.3687 13.7632 30.1969 13.7632H9.80312C9.63125 13.7632 9.49062 13.9038 9.49062 14.0757V27.7069H8.17188V13.1069C8.175 12.7413 8.46875 12.4444 8.83125 12.4444ZM16.3719 27.7069H12.1406V26.9038C12.1406 26.5757 12.4094 26.3069 12.7375 26.3069H15.775C16.1031 26.3069 16.3719 26.5757 16.3719 26.9038V27.7069ZM16.9969 27.7069V26.9038C16.9969 26.2288 16.45 25.6819 15.775 25.6819H12.7375C12.0625 25.6819 11.5156 26.2288 11.5156 26.9038V27.7069H10.1156V14.3882H29.8844V27.7069H16.9969ZM32.6156 29.4725C32.4875 29.6007 32.3219 29.6694 32.1437 29.6694H7.85625C7.4875 29.6694 7.1875 29.3694 7.1875 29.0007C7.1875 28.6319 7.4875 28.3319 7.85625 28.3319H9.6875C9.72188 28.3444 9.7625 28.3538 9.80312 28.3538H30.1969C30.2375 28.3538 30.275 28.3444 30.3125 28.3319H32.1406C32.5094 28.3319 32.8094 28.6319 32.8094 29.0038C32.8094 29.1788 32.7406 29.3444 32.6156 29.4725ZM19.7937 9.48503C19.8625 9.49753 19.9312 9.50378 20.0031 9.50378C20.2437 9.50378 20.4781 9.42878 20.6812 9.28816C20.9406 9.10691 21.1125 8.83503 21.1688 8.52253C21.225 8.21003 21.1531 7.89753 20.9719 7.63816C20.7906 7.37878 20.5187 7.20691 20.2062 7.15066C19.5625 7.03816 18.9469 7.46941 18.8344 8.11003C18.7188 8.75691 19.15 9.37253 19.7937 9.48503ZM19.45 8.22253C19.4969 7.95066 19.7344 7.76003 20 7.76003C20.0312 7.76003 20.0656 7.76316 20.0969 7.76941C20.2437 7.79441 20.3719 7.87566 20.4594 8.00066C20.5438 8.12253 20.5781 8.27253 20.5531 8.41941C20.5281 8.56628 20.4469 8.69441 20.3219 8.78191C20.2 8.86628 20.05 8.90066 19.9031 8.87566C19.6 8.81628 19.3969 8.52566 19.45 8.22253Z" fill="#00435B"/>
</svg>
