<svg width="40" height="40" viewBox="0 0 40 40" fill="none" xmlns="http://www.w3.org/2000/svg">
<rect width="40" height="40" fill="#46CDFB"/>
<path d="M10.1875 23.3114L21.4442 12.0547L27.9078 18.5183L16.6511 29.775L10.1875 23.3114Z" fill="#8ADCFF"/>
<path d="M29.5383 16.8874L23.0742 10.4233L24.116 9.38154C25.2289 8.26865 27.0309 8.26865 28.1437 9.38154L30.5801 11.8179C31.693 12.9308 31.693 14.7327 30.5801 15.8456L29.5383 16.8874Z" fill="#F77490"/>
<path d="M21.4453 12.0577L23.0733 10.4297L29.5369 16.8933L27.9089 18.5213L21.4453 12.0577Z" fill="#FDF17F"/>
<path d="M16.6531 29.7766L11.5891 30.8184L8.51562 31.45L9.14727 28.3766L10.1891 23.3125L16.6531 29.7766Z" fill="#FBD1AA"/>
<path d="M11.5891 30.8168L8.51562 31.4484L9.14727 28.375L11.5891 30.8168Z" fill="#889CA9"/>
<path d="M11.3047 24.4286L22.5614 13.1719L24.0134 14.6239L12.7567 25.8806L11.3047 24.4286ZM14.0853 27.2098L25.342 15.9531L26.4557 17.0668L15.199 28.3235L14.0853 27.2098Z" fill="#46CDFB"/>
<path d="M15.1992 28.327L26.4559 17.0703L26.7942 17.4087L15.5376 28.6654L15.1992 28.327Z" fill="#15B7FF"/>
<path d="M15.5352 28.6551L26.7919 17.3984L27.9075 18.5141L16.6508 29.7707L15.5352 28.6551Z" fill="#15B7FF"/>
<path d="M30.6988 15.7313L29.5367 16.8934L28.082 15.4387L29.2441 14.2766C30.2887 13.232 30.2887 11.5367 29.2441 10.4922L30.6988 11.9469C31.7461 12.9914 31.7461 14.6867 30.6988 15.7313Z" fill="#F65D73"/>
<path d="M26.457 17.0655L28.085 15.4375L29.539 16.8915L27.911 18.5195L26.457 17.0655Z" fill="#FAD672"/>
<path d="M16.6531 29.7723L11.5891 30.8141L8.51562 31.4457L8.89297 29.6164L10.1344 29.3594L15.2012 28.3203L16.6531 29.7723Z" fill="#F7BD81"/>
<path d="M11.5891 30.8141L8.51562 31.4457L8.89297 29.6164L10.1344 29.3594L11.5891 30.8141Z" fill="#73859E"/>
<path d="M30.7741 11.6302L28.3378 9.19385C27.121 7.97705 25.1413 7.97705 23.9245 9.19385L22.8937 10.2247C22.8909 10.2274 22.8855 10.2302 22.8827 10.2356L21.2612 11.8544L21.253 11.8626L9.99561 23.12C9.94912 23.1665 9.92451 23.2239 9.91631 23.2813L8.87998 28.3235L8.24834 31.397C8.24561 31.4079 8.24561 31.4188 8.24287 31.4298C8.2374 31.5091 8.26475 31.5884 8.32217 31.6431C8.35498 31.6759 8.39326 31.6978 8.43701 31.7114C8.46162 31.7196 8.48897 31.7224 8.51631 31.7224C8.53545 31.7224 8.55186 31.7196 8.571 31.7169L11.6444 31.0853L16.7085 30.0435C16.7714 30.0298 16.8261 29.9942 16.8671 29.9478L28.0944 18.7231L28.1026 18.7149L29.7132 17.1044C29.7187 17.0989 29.7269 17.0935 29.7323 17.088L30.7741 16.0462C31.9909 14.8294 31.9909 12.847 30.7741 11.6302ZM23.0741 10.8153L29.1499 16.8911L27.9085 18.1325L21.8327 12.0567L23.0741 10.8153ZM11.68 30.522L9.446 28.288L10.3565 23.8665L11.1085 24.6185C11.1112 24.6212 11.1112 24.6239 11.114 24.6267L12.5659 26.0786C12.5687 26.0813 12.5714 26.0841 12.5741 26.0841L13.8757 27.3856C13.8812 27.3938 13.8866 27.3993 13.8948 27.4075L15.005 28.5149L15.0105 28.5204L15.3495 28.8595C15.3522 28.8622 15.355 28.8649 15.3577 28.8649L16.1042 29.6114L11.68 30.522ZM21.4444 12.4423L22.1745 13.1724L11.3054 24.0442L10.5753 23.3142L21.4444 12.4423ZM11.6937 24.4298L22.5628 13.5606L23.6292 14.6271L12.7573 25.4962L11.6937 24.4298ZM14.4745 27.2106L25.3437 16.3415L26.4101 17.4079L15.5409 28.2771L14.4745 27.2106ZM14.0862 26.8251L13.1456 25.8817L24.0147 15.0126L24.9554 15.9532L14.0862 26.8251ZM9.31475 28.9306L11.0374 30.6532L8.86631 31.0989L9.31475 28.9306ZM16.6511 29.3899L15.9265 28.6653L26.7956 17.7962L27.5202 18.5208L16.6511 29.3899ZM30.3858 15.6579L29.5382 16.5056L23.4624 10.4298L24.3101 9.58213C25.3136 8.57861 26.946 8.57861 27.9522 9.58213L30.3886 12.0185C31.3894 13.022 31.3894 14.6544 30.3858 15.6579Z" fill="#00435B"/>
</svg>
