<svg width="40" height="40" viewBox="0 0 40 40" fill="none" xmlns="http://www.w3.org/2000/svg">
<rect width="40" height="40" fill="#F77490"/>
<path d="M11.5 11.6719V29.8447C11.5 30.75 12.2354 31.4854 13.1406 31.4854H28.7266C29.6318 31.4854 30.3672 30.75 30.3672 29.8447V11.6719H11.5Z" fill="#FEF8E6"/>
<path d="M28.7266 8.51562H13.1406C12.2354 8.51562 11.5 9.25098 11.5 10.1562V12.6172H30.3672V10.1562C30.3672 9.25098 29.6318 8.51562 28.7266 8.51562Z" fill="#F77490"/>
<path d="M12.0938 28.2656C12.5479 28.2656 12.9141 27.8994 12.9141 27.4453C12.9141 26.9912 12.5479 26.625 12.0938 26.625H10.4531C9.99902 26.625 9.63281 26.9912 9.63281 27.4453C9.63281 27.8994 9.99902 28.2656 10.4531 28.2656H12.0938ZM12.0938 15.9609C12.5479 15.9609 12.9141 15.5947 12.9141 15.1406C12.9141 14.6865 12.5479 14.3203 12.0938 14.3203H10.4531C9.99902 14.3203 9.63281 14.6865 9.63281 15.1406C9.63281 15.5947 9.99902 15.9609 10.4531 15.9609H12.0938ZM12.0938 24.1641C12.5479 24.1641 12.9141 23.7979 12.9141 23.3438C12.9141 22.8896 12.5479 22.5234 12.0938 22.5234H10.4531C9.99902 22.5234 9.63281 22.8896 9.63281 23.3438C9.63281 23.7979 9.99902 24.1641 10.4531 24.1641H12.0938ZM12.0938 20.0625C12.5479 20.0625 12.9141 19.6963 12.9141 19.2422C12.9141 18.7881 12.5479 18.4219 12.0938 18.4219H10.4531C9.99902 18.4219 9.63281 18.7881 9.63281 19.2422C9.63281 19.6963 9.99902 20.0625 10.4531 20.0625H12.0938Z" fill="#8ADCFF"/>
<path d="M25.4482 25.375H16.4248C16.2432 25.375 16.0938 25.2256 16.0938 25.0439V15.0889C16.0938 14.9072 16.2432 14.7578 16.4248 14.7578H25.4482C25.6299 14.7578 25.7793 14.9072 25.7793 15.0889V25.0439C25.7793 25.2256 25.6299 25.375 25.4482 25.375Z" fill="#BD9EE2"/>
<path d="M30.3672 11.6719V29.8447C30.3672 30.75 29.6318 31.4854 28.7266 31.4854H26.9688C27.874 31.4854 28.6094 30.75 28.6094 29.8447V11.6719H30.3672Z" fill="#FCEFAD"/>
<path d="M30.3672 10.1562V12.6172H28.6094V10.1562C28.6094 9.25098 27.874 8.51562 26.9688 8.51562H28.7266C29.6348 8.51562 30.3672 9.25098 30.3672 10.1562Z" fill="#F65D73"/>
<path d="M12.918 27.4453C12.918 27.8994 12.5518 28.2656 12.0977 28.2656H10.9258C11.3799 28.2656 11.7461 27.8994 11.7461 27.4453C11.7461 26.9912 11.3799 26.625 10.9258 26.625H12.0977C12.5488 26.625 12.918 26.9912 12.918 27.4453ZM12.918 15.1406C12.918 15.5947 12.5518 15.9609 12.0977 15.9609H10.9258C11.3799 15.9609 11.7461 15.5947 11.7461 15.1406C11.7461 14.6865 11.3799 14.3203 10.9258 14.3203H12.0977C12.5488 14.3203 12.918 14.6865 12.918 15.1406ZM12.918 23.3438C12.918 23.7979 12.5518 24.1641 12.0977 24.1641H10.9258C11.3799 24.1641 11.7461 23.7979 11.7461 23.3438C11.7461 22.8896 11.3799 22.5234 10.9258 22.5234H12.0977C12.5488 22.5234 12.918 22.8896 12.918 23.3438ZM12.918 19.2422C12.918 19.6963 12.5518 20.0625 12.0977 20.0625H10.9258C11.3799 20.0625 11.7461 19.6963 11.7461 19.2422C11.7461 18.7881 11.3799 18.4219 10.9258 18.4219H12.0977C12.5488 18.4219 12.918 18.7881 12.918 19.2422Z" fill="#46CDFB"/>
<path d="M25.7764 15.0811V25.0361C25.7764 25.2178 25.627 25.3672 25.4453 25.3672H23.6875C23.8691 25.3672 24.0186 25.2178 24.0186 25.0361V15.0811C24.0186 14.8994 23.8691 14.75 23.6875 14.75H25.4453C25.627 14.75 25.7764 14.8994 25.7764 15.0811Z" fill="#978CDB"/>
<path d="M30.6621 10.1523C30.6621 9.08594 29.7949 8.21875 28.7285 8.21875H13.1426C12.0762 8.21875 11.209 9.08594 11.209 10.1523V11.6289C11.2061 11.6406 11.2061 11.6553 11.2061 11.667V14.0254H10.4531C9.83789 14.0254 9.33984 14.5234 9.33984 15.1387C9.33984 15.7539 9.83789 16.252 10.4531 16.252H11.2061V18.127H10.4531C9.83789 18.127 9.33984 18.625 9.33984 19.2402C9.33984 19.8555 9.83789 20.3535 10.4531 20.3535H11.2061V22.2285H10.4531C9.83789 22.2285 9.33984 22.7266 9.33984 23.3418C9.33984 23.957 9.83789 24.4551 10.4531 24.4551H11.2061V26.3301H10.4531C9.83789 26.3301 9.33984 26.8281 9.33984 27.4434C9.33984 28.0586 9.83789 28.5566 10.4531 28.5566H11.2061V29.8398C11.2061 30.9063 12.0732 31.7734 13.1396 31.7734H28.7256C29.792 31.7734 30.6592 30.9063 30.6592 29.8398V12.6514C30.6621 12.6396 30.6621 12.625 30.6621 12.6133V10.1523ZM11.7949 10.1523C11.7949 9.4082 12.3984 8.80469 13.1426 8.80469H28.7285C29.4727 8.80469 30.0762 9.4082 30.0762 10.1523V12.3203H11.7949V10.1523ZM9.92578 15.1387C9.92578 14.8486 10.1631 14.6113 10.4531 14.6113H12.0938C12.3838 14.6113 12.6211 14.8486 12.6211 15.1387C12.6211 15.4287 12.3838 15.666 12.0938 15.666H10.4531C10.1631 15.666 9.92578 15.4287 9.92578 15.1387ZM9.92578 19.2402C9.92578 18.9502 10.1631 18.7129 10.4531 18.7129H12.0938C12.3838 18.7129 12.6211 18.9502 12.6211 19.2402C12.6211 19.5303 12.3838 19.7676 12.0938 19.7676H10.4531C10.1631 19.7676 9.92578 19.5303 9.92578 19.2402ZM9.92578 23.3418C9.92578 23.0518 10.1631 22.8145 10.4531 22.8145H12.0938C12.3838 22.8145 12.6211 23.0518 12.6211 23.3418C12.6211 23.6318 12.3838 23.8691 12.0938 23.8691H10.4531C10.1631 23.8691 9.92578 23.6318 9.92578 23.3418ZM9.92578 27.4434C9.92578 27.1533 10.1631 26.916 10.4531 26.916H12.0938C12.3838 26.916 12.6211 27.1533 12.6211 27.4434C12.6211 27.7334 12.3838 27.9707 12.0938 27.9707H10.4531C10.1631 27.9707 9.92578 27.7334 9.92578 27.4434ZM28.7256 31.1875H13.1396C12.3955 31.1875 11.792 30.584 11.792 29.8398V28.5566H12.0938C12.709 28.5566 13.207 28.0586 13.207 27.4434C13.207 26.8281 12.709 26.3301 12.0938 26.3301H11.792V24.4551H12.0938C12.709 24.4551 13.207 23.957 13.207 23.3418C13.207 22.7266 12.709 22.2285 12.0938 22.2285H11.792V20.3535H12.0938C12.709 20.3535 13.207 19.8555 13.207 19.2402C13.207 18.625 12.709 18.127 12.0938 18.127H11.792V16.252H12.0938C12.709 16.252 13.207 15.7539 13.207 15.1387C13.207 14.5234 12.709 14.0254 12.0938 14.0254H11.792V12.9062H30.0732V29.8398C30.0732 30.584 29.4697 31.1875 28.7256 31.1875Z" fill="#00435B"/>
<path d="M25.4443 14.4609H16.4209C16.0781 14.4609 15.7969 14.7422 15.7969 15.085V25.04C15.7969 25.3828 16.0781 25.6641 16.4209 25.6641H25.4443C25.7871 25.6641 26.0684 25.3828 26.0684 25.04V15.085C26.0684 14.7422 25.7871 14.4609 25.4443 14.4609ZM25.4824 25.04C25.4824 25.0605 25.4648 25.0781 25.4443 25.0781H16.4209C16.4004 25.0781 16.3828 25.0605 16.3828 25.04V15.085C16.3828 15.0645 16.4004 15.0469 16.4209 15.0469H25.4443C25.4648 15.0469 25.4824 15.0645 25.4824 15.085V25.04Z" fill="#00435B"/>
</svg>
