<svg width="40" height="40" viewBox="0 0 40 40" fill="none" xmlns="http://www.w3.org/2000/svg">
<rect width="40" height="40" fill="#E0D56B"/>
<path d="M20.9759 22.9089C21.252 23.1058 21.5337 23.278 21.829 23.4257C22.1462 23.587 22.4716 23.721 22.8024 23.8249C25.3864 24.6507 28.3204 23.8085 30.0485 21.5198C31.6372 19.4116 31.7657 16.6554 30.6036 14.4706C30.6009 14.4679 30.6009 14.4652 30.5981 14.4624C30.4778 14.2327 30.3411 14.0112 30.1907 13.798C30.1825 13.787 30.1743 13.7734 30.1661 13.7624C29.4524 12.6851 28.5446 11.7089 27.4536 10.8859C22.272 6.97843 14.9083 8.00929 11.0009 13.1882C7.09619 18.3671 8.12705 25.7335 13.306 29.6409C14.2739 30.371 15.3212 30.9316 16.4067 31.3198C16.4177 31.3226 16.4259 31.328 16.4368 31.3308C16.456 31.339 16.4751 31.3444 16.4942 31.3499C16.5024 31.3527 16.5106 31.3554 16.5216 31.3581C17.495 31.6808 18.6106 31.3691 19.2614 30.5023C19.863 29.7038 19.9067 28.6593 19.4556 27.8362C19.3188 27.5847 19.1356 27.355 18.906 27.1581C18.8649 27.1226 18.8212 27.087 18.7774 27.0542C18.7282 27.0187 18.679 26.9831 18.627 26.9503C17.6919 26.1382 17.5333 24.73 18.2907 23.7237C18.9306 22.8788 20.0243 22.578 20.9759 22.9089ZM13.2376 23.0784C12.1931 22.2909 11.9825 20.8034 12.7727 19.7589C13.5602 18.7144 15.0477 18.5038 16.0923 19.2941C17.1368 20.0816 17.3474 21.5691 16.5571 22.6136C15.7696 23.6581 14.2821 23.8659 13.2376 23.0784Z" fill="#FDF17F"/>
<path d="M14.3906 28.3312C14.3906 28.541 14.4319 28.7486 14.5122 28.9423C14.5924 29.1361 14.7101 29.3121 14.8583 29.4604C15.0066 29.6087 15.1827 29.7263 15.3764 29.8066C15.5701 29.8868 15.7778 29.9281 15.9875 29.9281C16.1972 29.9281 16.4049 29.8868 16.5986 29.8066C16.7923 29.7263 16.9684 29.6087 17.1167 29.4604C17.2649 29.3121 17.3826 29.1361 17.4628 28.9423C17.5431 28.7486 17.5844 28.541 17.5844 28.3312C17.5844 28.1215 17.5431 27.9139 17.4628 27.7202C17.3826 27.5264 17.2649 27.3504 17.1167 27.2021C16.9684 27.0538 16.7923 26.9362 16.5986 26.8559C16.4049 26.7757 16.1972 26.7344 15.9875 26.7344C15.7778 26.7344 15.5701 26.7757 15.3764 26.8559C15.1827 26.9362 15.0066 27.0538 14.8583 27.2021C14.7101 27.3504 14.5924 27.5264 14.5122 27.7202C14.4319 27.9139 14.3906 28.1215 14.3906 28.3312Z" fill="#F65D73"/>
<path d="M14.3906 13.7766C14.3906 13.9863 14.4319 14.1939 14.5122 14.3877C14.5924 14.5814 14.7101 14.7574 14.8583 14.9057C15.0066 15.054 15.1827 15.1716 15.3764 15.2519C15.5701 15.3321 15.7778 15.3734 15.9875 15.3734C16.1972 15.3734 16.4049 15.3321 16.5986 15.2519C16.7923 15.1716 16.9684 15.054 17.1167 14.9057C17.2649 14.7574 17.3826 14.5814 17.4628 14.3877C17.5431 14.1939 17.5844 13.9863 17.5844 13.7766C17.5844 13.5669 17.5431 13.3592 17.4628 13.1655C17.3826 12.9717 17.2649 12.7957 17.1167 12.6474C16.9684 12.4991 16.7923 12.3815 16.5986 12.3012C16.4049 12.221 16.1972 12.1797 15.9875 12.1797C15.7778 12.1797 15.5701 12.221 15.3764 12.3012C15.1827 12.3815 15.0066 12.4991 14.8583 12.6474C14.7101 12.7957 14.5924 12.9717 14.5122 13.1655C14.4319 13.3592 14.3906 13.5669 14.3906 13.7766Z" fill="#50E6CC"/>
<path d="M20.5469 12.175C20.5469 12.5985 20.7151 13.0047 21.0146 13.3042C21.3141 13.6036 21.7202 13.7719 22.1438 13.7719C22.5673 13.7719 22.9734 13.6036 23.2729 13.3042C23.5724 13.0047 23.7406 12.5985 23.7406 12.175C23.7406 11.7515 23.5724 11.3453 23.2729 11.0458C22.9734 10.7464 22.5673 10.5781 22.1438 10.5781C21.7202 10.5781 21.3141 10.7464 21.0146 11.0458C20.7151 11.3453 20.5469 11.7515 20.5469 12.175Z" fill="#46CDFB"/>
<path d="M25.3711 15.5969C25.3711 16.0204 25.5393 16.4266 25.8388 16.726C26.1383 17.0255 26.5445 17.1937 26.968 17.1937C27.3915 17.1937 27.7977 17.0255 28.0971 16.726C28.3966 16.4266 28.5648 16.0204 28.5648 15.5969C28.5648 15.1734 28.3966 14.7672 28.0971 14.4677C27.7977 14.1682 27.3915 14 26.968 14C26.5445 14 26.1383 14.1682 25.8388 14.4677C25.5393 14.7672 25.3711 15.1734 25.3711 15.5969Z" fill="#BD9EE2"/>
<path d="M23.0469 20.2687C23.0469 20.6923 23.2151 21.0984 23.5146 21.3979C23.8141 21.6974 24.2202 21.8656 24.6438 21.8656C25.0673 21.8656 25.4734 21.6974 25.7729 21.3979C26.0724 21.0984 26.2406 20.6923 26.2406 20.2687C26.2406 19.8452 26.0724 19.4391 25.7729 19.1396C25.4734 18.8401 25.0673 18.6719 24.6438 18.6719C24.2202 18.6719 23.8141 18.8401 23.5146 19.1396C23.2151 19.4391 23.0469 19.8452 23.0469 20.2687Z" fill="#EB866B"/>
<path d="M30.6 14.4689C30.5973 14.4661 30.5973 14.4634 30.5945 14.4607C30.4742 14.231 30.3375 14.0095 30.1871 13.7962C30.1789 13.7853 30.1707 13.7716 30.1625 13.7607C29.4488 12.6833 28.541 11.7071 27.45 10.8841C25.0683 9.08761 22.2273 8.33566 19.4683 8.55167C21.6258 8.71847 23.764 9.4841 25.6207 10.8841C26.7117 11.7071 27.6195 12.6833 28.3332 13.7607C28.3414 13.7716 28.3496 13.7853 28.3578 13.7962C28.5082 14.0095 28.6449 14.231 28.7652 14.4607C28.768 14.4634 28.768 14.4661 28.7707 14.4689C29.9328 16.6564 29.8043 19.4099 28.2156 21.5181C27.1219 22.9673 25.5441 23.8368 23.8789 24.0693C26.1648 24.3892 28.5547 23.4923 30.0449 21.5181C31.6363 19.4099 31.7648 16.6536 30.6 14.4689ZM19.4547 27.8372C19.318 27.5857 19.1348 27.356 18.9051 27.1591C18.8641 27.1236 18.8203 27.088 18.7766 27.0552C18.7273 27.0169 18.6781 26.9841 18.6262 26.9486C17.691 26.1364 17.5324 24.7282 18.2898 23.722C18.5441 23.3829 18.875 23.1314 19.2387 22.9728C19.2058 22.9509 19.1758 22.929 19.143 22.9071C18.1914 22.5763 17.0976 22.8771 16.4605 23.722C15.7031 24.7255 15.8617 26.1364 16.7969 26.9486C16.8488 26.9814 16.898 27.0169 16.9473 27.0552C16.991 27.088 17.0348 27.1236 17.0785 27.1591C17.3055 27.356 17.4887 27.5857 17.6281 27.8372C18.0766 28.6603 18.0355 29.7048 17.434 30.5032C17.1523 30.8778 16.7859 31.1458 16.3812 31.3071C16.3894 31.3099 16.4004 31.3126 16.4086 31.3181C16.4195 31.3208 16.4277 31.3263 16.4387 31.329C16.4578 31.3372 16.4769 31.3427 16.4961 31.3509C16.5043 31.3536 16.5125 31.3564 16.5234 31.3591C17.4969 31.6818 18.6125 31.37 19.2633 30.5032C19.8621 29.7048 19.9058 28.6603 19.4547 27.8372Z" fill="#FAD672"/>
<path d="M17.5812 28.3312C17.5812 29.2117 16.8676 29.9281 15.9844 29.9281C15.793 29.9281 15.607 29.8953 15.4375 29.8324C16.05 29.6082 16.4875 29.0203 16.4875 28.3312C16.4875 27.6422 16.05 27.0543 15.4375 26.8301C15.607 26.7672 15.793 26.7344 15.9844 26.7344C16.8676 26.7344 17.5812 27.448 17.5812 28.3312Z" fill="#F04B69"/>
<path d="M17.5773 13.7766C17.5773 14.657 16.8637 15.3734 15.9805 15.3734C15.7891 15.3734 15.6031 15.3406 15.4336 15.2777C16.0461 15.0535 16.4836 14.4656 16.4836 13.7766C16.4836 13.0875 16.0461 12.4996 15.4336 12.2754C15.6031 12.2125 15.7891 12.1797 15.9805 12.1797C16.8637 12.1797 17.5773 12.8961 17.5773 13.7766Z" fill="#45DABD"/>
<path d="M23.7414 12.175C23.7414 13.0555 23.0277 13.7719 22.1445 13.7719C21.9531 13.7719 21.7672 13.7391 21.5977 13.6762C22.2102 13.452 22.6477 12.8668 22.6477 12.175C22.6477 11.4859 22.2102 10.898 21.5977 10.6738C21.7672 10.6109 21.9531 10.5781 22.1445 10.5781C23.025 10.5809 23.7414 11.2945 23.7414 12.175Z" fill="#15B7FF"/>
<path d="M28.5656 15.5969C28.5656 16.4773 27.852 17.1937 26.9688 17.1937C26.7773 17.1937 26.5914 17.1609 26.4219 17.098C27.0344 16.8738 27.4719 16.2859 27.4719 15.5969C27.4719 14.9078 27.0344 14.3199 26.4219 14.0957C26.5914 14.0328 26.7773 14 26.9688 14C27.8492 14 28.5656 14.7137 28.5656 15.5969Z" fill="#978CDB"/>
<path d="M26.2414 20.2687C26.2414 21.1492 25.5277 21.8656 24.6445 21.8656C24.4531 21.8656 24.2672 21.8328 24.0977 21.7699C24.7102 21.5457 25.1477 20.9605 25.1477 20.2687C25.1477 19.577 24.7102 18.9918 24.0977 18.7676C24.2672 18.7047 24.4531 18.6719 24.6445 18.6719C25.5277 18.6719 26.2414 19.3883 26.2414 20.2687Z" fill="#DA6749"/>
<path d="M15.0278 23.8016C15.7278 23.7032 16.3458 23.3395 16.7723 22.7762C17.1989 22.213 17.3794 21.5184 17.2809 20.8212C17.1825 20.1212 16.8188 19.5005 16.2555 19.0739C15.6923 18.6473 14.9977 18.4669 14.2977 18.5653C13.5977 18.6637 12.977 19.0274 12.5505 19.5907C12.1239 20.154 11.9434 20.8485 12.0419 21.5485C12.1403 22.2485 12.504 22.8692 13.07 23.2958C13.5321 23.6458 14.0844 23.829 14.6559 23.829C14.779 23.829 14.9048 23.8208 15.0278 23.8016ZM13.3981 22.8583C12.9497 22.5219 12.6598 22.0298 12.5833 21.4719C12.5067 20.9169 12.6489 20.3673 12.988 19.9216C13.3243 19.4731 13.8165 19.1833 14.3743 19.1067C14.4727 19.093 14.5712 19.0876 14.6669 19.0876C15.118 19.0876 15.5583 19.2325 15.9247 19.5114C16.3731 19.8477 16.663 20.3399 16.7395 20.8977C16.8161 21.4528 16.6739 22.0024 16.3348 22.4481C15.9985 22.8938 15.5063 23.1837 14.9512 23.2602C14.3962 23.3395 13.8466 23.1946 13.3981 22.8583Z" fill="#00435B"/>
<path d="M30.8401 14.3452C30.8373 14.3397 30.8319 14.3315 30.8291 14.326C30.7088 14.0963 30.5666 13.8666 30.4108 13.6424C30.408 13.6397 30.408 13.6397 30.408 13.637L30.4026 13.6315C30.3971 13.6233 30.3916 13.6178 30.3862 13.6096C29.6397 12.4858 28.7073 11.4959 27.6135 10.6702C26.3174 9.69398 24.8682 8.99945 23.3096 8.6057C21.803 8.22562 20.2553 8.14359 18.7077 8.35961C17.1627 8.57562 15.6971 9.08148 14.3518 9.85805C12.96 10.6647 11.7569 11.7284 10.7807 13.0245C9.80453 14.3205 9.11 15.767 8.71898 17.3284C8.33891 18.8377 8.25687 20.3854 8.47289 21.933C8.68891 23.478 9.19477 24.9463 9.97133 26.2916C10.778 27.6834 11.8416 28.8866 13.1377 29.8627C14.1139 30.5983 15.1803 31.1752 16.3123 31.5799C16.3151 31.5799 16.3151 31.5799 16.3178 31.5827C16.3233 31.5854 16.3315 31.5881 16.3424 31.5909C16.3698 31.6018 16.3916 31.6073 16.4108 31.6127C16.419 31.6155 16.4299 31.6182 16.4409 31.6209C16.7225 31.7139 17.0096 31.7577 17.294 31.7577C18.1362 31.7577 18.951 31.3666 19.476 30.6666C20.1241 29.808 20.2061 28.6459 19.692 27.7053C19.5362 27.4182 19.3311 27.1639 19.0823 26.9506C19.0358 26.9096 18.9866 26.8713 18.9401 26.8358C18.9401 26.8358 18.9373 26.833 18.9346 26.833C18.8881 26.8002 18.8416 26.7647 18.7897 26.7319C17.9721 26.01 17.8491 24.7659 18.5053 23.8909C19.0522 23.169 19.9901 22.8764 20.8459 23.158C21.1303 23.3604 21.412 23.5272 21.7018 23.6721C22.0354 23.8416 22.3745 23.9811 22.7162 24.0877C23.3998 24.3065 24.0971 24.4104 24.7916 24.4104C26.8998 24.4104 28.9452 23.4315 30.2659 21.687C31.067 20.626 31.5373 19.3655 31.6303 18.0448C31.7151 16.7596 31.4444 15.4799 30.8401 14.3452ZM31.0807 18.0092C30.9959 19.2233 30.5612 20.3827 29.8256 21.3588C28.2151 23.4916 25.4233 24.3803 22.8803 23.5682C22.5686 23.4698 22.2541 23.3413 21.9479 23.1854C21.6717 23.0487 21.4038 22.8846 21.1303 22.6905C21.1084 22.6741 21.0866 22.6631 21.062 22.6549C19.9709 22.2748 18.7678 22.6412 18.0678 23.5627C17.6604 24.1041 17.4772 24.7713 17.5483 25.4412C17.6194 26.1084 17.9366 26.7209 18.4424 27.1584L18.4752 27.183C18.519 27.2104 18.5627 27.2432 18.6092 27.276C18.6448 27.3034 18.683 27.3334 18.7213 27.3662C18.9209 27.5385 19.085 27.7409 19.208 27.9678C19.6209 28.7198 19.5526 29.6522 19.0358 30.3385C18.4725 31.0905 17.4936 31.394 16.5995 31.0987C16.594 31.0959 16.5858 31.0959 16.5803 31.0932C16.5776 31.0932 16.5748 31.0905 16.5721 31.0905C16.5694 31.0905 16.5639 31.0877 16.5612 31.0877C16.553 31.085 16.5393 31.0823 16.5366 31.0795C16.5311 31.0768 16.5229 31.0741 16.5147 31.0713C16.5065 31.0686 16.4955 31.0631 16.4819 31.0604C15.4073 30.6748 14.3901 30.1252 13.4604 29.4225C12.2245 28.4901 11.2073 27.3416 10.4389 26.0127C9.69516 24.7276 9.21391 23.3303 9.00883 21.8537C8.80102 20.3772 8.88031 18.9006 9.24125 17.4623C9.61586 15.9721 10.2776 14.5912 11.21 13.3553C12.1424 12.1194 13.2909 11.1022 14.6198 10.3338C15.9049 9.59008 17.3022 9.10883 18.7787 8.90375C20.2553 8.69594 21.7319 8.77523 23.1702 9.13617C24.6604 9.51078 26.0412 10.1725 27.2799 11.1049C28.3245 11.8924 29.2159 12.8385 29.9295 13.9131C29.9323 13.9186 29.935 13.9213 29.9377 13.9241L29.9432 13.9295C29.9487 13.9377 29.9541 13.9459 29.9623 13.9541C30.1073 14.162 30.2385 14.3725 30.3506 14.5858C30.3534 14.594 30.3588 14.5995 30.3616 14.6077C30.9139 15.6549 31.1627 16.828 31.0807 18.0092Z" fill="#00435B"/>
<path d="M15.9875 26.4672C14.9566 26.4672 14.1172 27.3066 14.1172 28.3375C14.1172 29.3684 14.9566 30.2078 15.9875 30.2078C17.0184 30.2078 17.8578 29.3684 17.8578 28.3375C17.8578 27.3066 17.0184 26.4672 15.9875 26.4672ZM15.9875 29.6609C15.2574 29.6609 14.6641 29.0676 14.6641 28.3375C14.6641 27.6074 15.2574 27.0141 15.9875 27.0141C16.7176 27.0141 17.3109 27.6074 17.3109 28.3375C17.3109 29.0676 16.7176 29.6609 15.9875 29.6609ZM15.9875 11.9094C14.9566 11.9094 14.1172 12.7488 14.1172 13.7797C14.1172 14.8105 14.9566 15.65 15.9875 15.65C17.0184 15.65 17.8578 14.8105 17.8578 13.7797C17.8578 12.7488 17.0184 11.9094 15.9875 11.9094ZM15.9875 15.1031C15.2574 15.1031 14.6641 14.5098 14.6641 13.7797C14.6641 13.0496 15.2574 12.4562 15.9875 12.4562C16.7176 12.4562 17.3109 13.0496 17.3109 13.7797C17.3109 14.5098 16.7176 15.1031 15.9875 15.1031ZM24.0156 12.1828C24.0156 11.152 23.1762 10.3125 22.1453 10.3125C21.1145 10.3125 20.275 11.152 20.275 12.1828C20.275 13.2137 21.1145 14.0531 22.1453 14.0531C23.1762 14.0531 24.0156 13.2137 24.0156 12.1828ZM22.1453 13.5062C21.4152 13.5062 20.8219 12.9129 20.8219 12.1828C20.8219 11.4527 21.4152 10.8594 22.1453 10.8594C22.8754 10.8594 23.4688 11.4527 23.4688 12.1828C23.4688 12.9129 22.8754 13.5062 22.1453 13.5062ZM26.9688 13.7305C25.9379 13.7305 25.0984 14.5699 25.0984 15.6008C25.0984 16.6316 25.9379 17.4711 26.9688 17.4711C27.9996 17.4711 28.8391 16.6316 28.8391 15.6008C28.8391 14.5699 27.9996 13.7305 26.9688 13.7305ZM26.9688 16.9242C26.2387 16.9242 25.6453 16.3309 25.6453 15.6008C25.6453 14.8707 26.2387 14.2773 26.9688 14.2773C27.6988 14.2773 28.2922 14.8707 28.2922 15.6008C28.2922 16.3309 27.6988 16.9242 26.9688 16.9242ZM24.6473 18.4063C23.6164 18.4063 22.777 19.2457 22.777 20.2766C22.777 21.3074 23.6164 22.1469 24.6473 22.1469C25.6781 22.1469 26.5176 21.3074 26.5176 20.2766C26.5176 19.2457 25.6781 18.4063 24.6473 18.4063ZM24.6473 21.6C23.9172 21.6 23.3238 21.0066 23.3238 20.2766C23.3238 19.5465 23.9172 18.9531 24.6473 18.9531C25.3773 18.9531 25.9707 19.5465 25.9707 20.2766C25.9707 21.0066 25.3773 21.6 24.6473 21.6Z" fill="#00435B"/>
</svg>
