<svg width="40" height="40" viewBox="0 0 40 40" fill="none" xmlns="http://www.w3.org/2000/svg">
<rect width="40" height="40" fill="#3BC0A6"/>
<path d="M31.142 19.5328C31.1256 19.5821 31.1064 19.6313 31.0846 19.6805C31.0791 19.6969 31.0709 19.7133 31.0627 19.7297C31.0408 19.7789 31.0162 19.8254 30.9889 19.8719C30.9725 19.902 30.9533 19.9348 30.9342 19.9649C30.926 19.9813 30.915 19.995 30.9041 20.0114C30.885 20.0414 30.8631 20.0715 30.8412 20.1016C30.7756 20.1891 30.7045 20.2739 30.6252 20.3532L23.2068 27.7715L19.5838 31.3946H15.3373L8.61621 24.6735C7.76855 23.8258 7.76855 22.434 8.61621 21.5864L12.8189 17.3836L20.24 9.96527C20.9947 9.21058 22.176 9.12582 23.0264 9.71371C23.133 9.78754 23.2342 9.86957 23.3271 9.96527L24.615 11.2532L26.1955 12.8336L29.34 15.9782L30.4201 17.0582L30.6279 17.2661C30.7072 17.3453 30.7811 17.4301 30.8439 17.5176C30.8549 17.534 30.8686 17.5504 30.8795 17.5668C30.8986 17.5942 30.9178 17.6243 30.9369 17.6516C30.9561 17.6817 30.9752 17.7145 30.9916 17.7446C31.008 17.7774 31.0244 17.8075 31.0408 17.8403C31.2979 18.368 31.3334 18.9805 31.142 19.5328Z" fill="#FDF17F"/>
<path d="M31.1434 19.5367C31.127 19.5859 31.1078 19.6352 31.0859 19.6844C31.0805 19.7008 31.0723 19.7172 31.0641 19.7336C31.0422 19.7828 31.0176 19.8293 30.9902 19.8758C30.9738 19.9059 30.9547 19.9387 30.9355 19.9688C30.9273 19.9852 30.9164 19.9988 30.9055 20.0152C30.8863 20.0453 30.8645 20.0754 30.8426 20.1055C30.777 20.193 30.7059 20.2777 30.6266 20.357L23.2082 27.7754L19.5852 31.3984H15.3387L14.3516 30.4113C15.1992 31.259 16.591 31.259 17.4387 30.4113L29.0598 18.7902C29.8145 18.0355 29.8992 16.857 29.3141 16.0066C29.2402 15.9 29.1555 15.7988 29.0598 15.7031L29.3387 15.982L30.4187 17.0621L30.6266 17.2699C30.7059 17.3492 30.777 17.434 30.8426 17.5215C30.8535 17.5379 30.8672 17.5543 30.8781 17.5707C30.8973 17.598 30.9164 17.6281 30.9355 17.6555C30.9547 17.6855 30.9738 17.7184 30.9902 17.7484C31.0066 17.7812 31.023 17.8113 31.0395 17.8441C31.2992 18.3719 31.3348 18.9844 31.1434 19.5367Z" fill="#FAD672"/>
<path d="M31.3836 20.2631L23.5414 28.1053L12.5547 17.1186L20.3969 9.27637C21.2445 8.42871 22.6363 8.42871 23.484 9.27637L31.3836 17.176C32.2313 18.0236 32.2313 19.4154 31.3836 20.2631Z" fill="#50E6CC"/>
<path d="M31.3523 20.2291L23.5102 28.0713L12.5234 17.0873L20.3656 9.24512C21.2133 8.39746 22.6051 8.39746 23.4527 9.24512L31.3523 17.1447C32.2 17.9924 32.2 19.3814 31.3523 20.2291Z" fill="#50E6CC"/>
<path d="M14.0859 18.6507L23.471 9.26562L25.0352 10.8298L15.6501 20.2149L14.0859 18.6507ZM17.2302 21.7952L26.6153 12.4101L28.1795 13.9743L18.7944 23.3594L17.2302 21.7952ZM20.3746 24.9397L29.7597 15.5546L31.3239 17.1188L21.9388 26.5039L20.3746 24.9397Z" fill="#45DABD"/>
<path d="M31.3504 20.2242L23.5082 28.0664L21.9414 26.4996L29.7836 18.6574C30.6312 17.8098 30.6312 16.418 29.7836 15.5703L31.3504 17.1371C32.198 17.9875 32.198 19.3766 31.3504 20.2242Z" fill="#1FC1AD"/>
<path d="M31.5795 16.9797L23.6799 9.08006C23.6498 9.04998 23.617 9.01717 23.5842 8.98983L23.5814 8.98709L23.5787 8.98436C23.1139 8.55506 22.5096 8.32537 21.8725 8.33631C21.2299 8.34725 20.6283 8.60155 20.1771 9.05272L12.3295 16.8922C12.2229 16.9988 12.2229 17.1711 12.3295 17.2777L12.4334 17.3816L8.4248 21.393C7.46777 22.35 7.46777 23.9086 8.4248 24.8656L15.1459 31.5867C15.1979 31.6387 15.2662 31.666 15.34 31.666H19.5865C19.6604 31.666 19.7287 31.6359 19.7807 31.5867L23.2123 28.1551L23.2205 28.1633L23.3518 28.2945C23.4064 28.3492 23.4748 28.3738 23.5459 28.3738C23.617 28.3738 23.6854 28.3465 23.74 28.2945L31.5822 20.4523C32.5365 19.4953 32.5365 17.9394 31.5795 16.9797ZM14.4787 18.6504L23.4748 9.65428L24.142 10.3215L24.6533 10.8328L15.6545 19.8289L14.4787 18.6504ZM14.0904 18.2648L13.0158 17.1902L12.942 17.1164L20.59 9.46834C20.9346 9.12381 21.3967 8.92694 21.8889 8.91326C22.3182 8.90233 22.7338 9.03084 23.0729 9.2824L14.0904 18.2648ZM18.799 22.9734L17.6232 21.7949L26.6193 12.7988L27.7979 13.9773L27.5682 14.207L18.799 22.9734ZM17.235 21.4094L16.04 20.2144L25.0389 11.2156L26.2338 12.4105L17.235 21.4094ZM21.9436 26.118L20.7678 24.9394L26.715 18.9922L29.5369 16.173L29.7666 15.9433L30.9451 17.1219L30.6908 17.3762L30.6826 17.3844L21.9436 26.118ZM31.0764 17.7617L31.0846 17.7535L31.3197 17.5183C31.8994 18.2648 31.8475 19.3476 31.1611 20.034L23.5104 27.6847L22.3318 26.5062L31.0764 17.7617ZM23.5705 18.9758L27.9537 14.5926L28.1834 14.3629L29.3783 15.5551L29.1486 15.7847L20.3795 24.5539L19.1873 23.3617L23.5705 18.9758ZM19.4744 31.1219H15.4549L8.81309 24.4801C8.06934 23.7363 8.06934 22.525 8.81309 21.7785L12.8217 17.7699L17.0381 21.9863L17.0408 21.989L18.6049 23.5531L18.6131 23.5613L20.1717 25.1199C20.1771 25.1254 20.1799 25.1308 20.1854 25.1336L21.7494 26.6976C21.7549 26.7031 21.7604 26.7086 21.7658 26.7113L22.824 27.7695L19.4744 31.1219Z" fill="#00435B"/>
</svg>
