<svg width="40" height="40" viewBox="0 0 40 40" fill="none" xmlns="http://www.w3.org/2000/svg">
<rect width="40" height="40" fill="#EA617F"/>
<path d="M9.78906 19.1562H16.6797V26.4746H9.78906V19.1562Z" fill="#FFCAD3"/>
<path d="M27.1865 23.4639C26.9316 23.4639 26.7266 23.2588 26.7266 23.0039V20.7334C26.7266 20.4785 26.9316 20.2734 27.1865 20.2734C27.4414 20.2734 27.6465 20.4785 27.6465 20.7334V23.0039C27.6465 23.2588 27.4385 23.4639 27.1865 23.4639Z" fill="#889CA9"/>
<path d="M30.3135 28.9268H7.75488C7.2334 28.9268 6.80859 28.502 6.80859 27.9805V26.0088C6.80859 25.4873 7.2334 25.0625 7.75488 25.0625H30.3135C30.835 25.0625 31.2598 25.4873 31.2598 26.0088V27.9775C31.2598 28.502 30.835 28.9268 30.3135 28.9268Z" fill="#50E6CC"/>
<path d="M16.8984 21.4736H27.1289C28.1045 21.4736 28.8926 20.6826 28.8926 19.71V15.7109H16.8984V21.4736Z" fill="#FDF17F"/>
<path d="M28.8965 15.7109V19.71C28.8965 20.6855 28.1055 21.4736 27.1328 21.4736H24.9648C25.9404 21.4736 26.7285 20.6826 26.7285 19.71V15.7109H28.8965Z" fill="#FAD672"/>
<path d="M8.19759 24.5841C7.09309 23.7521 6.78548 22.589 6.79719 21.0069C6.80891 19.5919 8.00716 17.9981 9.18196 17.5323L18.5101 13.5919C20.0452 12.9825 26.9095 11.1017 26.9095 11.1017C27.8529 10.9728 28.7933 11.38 29.3411 12.1593L31.1517 14.7345C31.4007 15.089 31.2103 15.5841 30.7884 15.6808C30.7884 15.6808 21.0325 19.3722 19.6204 20.1925L12.2406 24.8243C10.9661 25.5655 9.37239 25.4718 8.19759 24.5841Z" fill="#F77490"/>
<path d="M30.7852 15.6759C30.7852 15.6759 21.0293 19.3673 19.6172 20.1876L12.2402 24.8224C11.3584 25.3351 10.3213 25.4464 9.375 25.171C9.65625 25.089 9.92871 24.9718 10.1895 24.8224L17.5664 20.1876C18.9785 19.3673 28.7344 15.6759 28.7344 15.6759C29.1563 15.5792 29.3467 15.0841 29.0977 14.7296L27.2871 12.1544C27.0117 11.7647 26.6426 11.4689 26.2207 11.2843C26.6484 11.1671 26.9063 11.0939 26.9063 11.0939C27.8496 10.9649 28.7871 11.3722 29.3379 12.1515L31.1484 14.7267C31.3975 15.0841 31.207 15.5792 30.7852 15.6759Z" fill="#F65D73"/>
<path d="M11.666 26.2227C10.8047 26.2227 10.1016 25.5225 10.1016 24.6582C10.1016 23.7969 10.8018 23.0938 11.666 23.0938C12.5303 23.0938 13.2305 23.7939 13.2305 24.6582C13.2305 25.5195 12.5303 26.2227 11.666 26.2227Z" fill="#FDF17F"/>
<path d="M31.2627 26.0088V27.9775C31.2627 28.499 30.8379 28.9238 30.3164 28.9238H28.2656C28.7871 28.9238 29.2119 28.499 29.2119 27.9775V26.0088C29.2119 25.4873 28.7871 25.0625 28.2656 25.0625H30.3164C30.8379 25.0625 31.2627 25.4902 31.2627 26.0088Z" fill="#45DABD"/>
<path d="M11.666 23.0938C11.5137 23.0938 11.3672 23.1172 11.2266 23.1582C11.874 23.3486 12.3516 23.9492 12.3516 24.6582C12.3516 25.3672 11.877 25.9678 11.2266 26.1582C11.3672 26.1992 11.5137 26.2227 11.666 26.2227C12.5273 26.2227 13.2305 25.5225 13.2305 24.6582C13.2305 23.7939 12.5303 23.0938 11.666 23.0938Z" fill="#FAD672"/>
<path d="M30.3138 24.7695H16.972V22.2031L17.6605 21.7724H26.4349V23.0058C26.4349 23.4218 26.7718 23.7587 27.1878 23.7587C27.6038 23.7587 27.9407 23.4218 27.9407 23.0058V21.6054C28.6937 21.2831 29.1859 20.5507 29.1859 19.7158V16.6103C30.1116 16.2558 30.765 16.0068 30.8763 15.9658C31.1605 15.8925 31.3919 15.6874 31.4974 15.415C31.6058 15.1337 31.5677 14.8173 31.3948 14.5712L29.5843 11.996C28.972 11.123 27.932 10.6718 26.8743 10.8154C26.8626 10.8183 26.848 10.8183 26.8363 10.8242C26.555 10.9003 19.9398 12.7167 18.4075 13.3261C18.4046 13.3261 18.4046 13.329 18.4017 13.329L9.07063 17.2636C8.44368 17.5126 7.805 18.0546 7.31282 18.746C6.79719 19.4755 6.51008 20.2783 6.50422 21.0048C6.49543 22.2968 6.66243 23.747 7.95442 24.7665H7.7552C7.07258 24.7665 6.51594 25.3232 6.51594 26.0058V27.9775C6.51594 28.6601 7.07258 29.2167 7.7552 29.2167H30.3138C30.9964 29.2167 31.5531 28.6601 31.5531 27.9745V26.0087C31.5531 25.3261 30.9964 24.7695 30.3138 24.7695ZM16.3861 24.7695H13.5208C13.5238 24.7343 13.5238 24.6962 13.5238 24.6611C13.5238 24.5673 13.5179 24.4736 13.5032 24.3827L16.3861 22.5722V24.7695ZM10.3948 24.6611C10.3948 23.9609 10.9661 23.3896 11.6663 23.3896C12.3665 23.3896 12.9378 23.9609 12.9378 24.6611C12.9378 25.3613 12.3665 25.9326 11.6663 25.9326C10.9661 25.9326 10.3948 25.3613 10.3948 24.6611ZM27.1878 23.1728C27.0941 23.1728 27.0208 23.0995 27.0208 23.0058V21.7724H27.1292C27.2054 21.7724 27.2816 21.7695 27.3548 21.7607V23.0058C27.3548 23.0966 27.2786 23.1728 27.1878 23.1728ZM27.5628 21.122C27.5599 21.122 27.5599 21.122 27.5628 21.122C27.4222 21.1659 27.2786 21.1865 27.1292 21.1865H18.595L19.7728 20.4482C20.4876 20.0351 23.6927 18.7226 28.5999 16.8359V19.7158C28.5999 20.3661 28.1839 20.9316 27.5628 21.122ZM8.37336 24.3534C7.45051 23.6562 7.07844 22.6894 7.09016 21.0136C7.09602 20.413 7.3509 19.7128 7.79328 19.0859C8.22102 18.4824 8.76594 18.0165 9.29036 17.8085C9.29329 17.8085 9.29329 17.8056 9.29621 17.8056L18.6214 13.8652C20.0892 13.2822 26.5638 11.5009 26.9681 11.3925C27.8031 11.2841 28.6175 11.6445 29.1009 12.33L30.9115 14.9052C30.973 14.9931 30.9876 15.1015 30.9466 15.2011C30.9085 15.3007 30.8265 15.374 30.721 15.3974C30.7093 15.4003 30.6947 15.4033 30.6829 15.4091C30.6741 15.412 29.9066 15.7021 28.7874 16.1327C25.7493 17.2988 20.4993 19.3437 19.474 19.9413C19.471 19.9443 19.4681 19.9443 19.4652 19.9472L13.3157 23.8085C13.0052 23.2138 12.3841 22.8036 11.6663 22.8036C10.6409 22.8036 9.80891 23.6357 9.80891 24.6611C9.80891 24.6962 9.80891 24.7343 9.81184 24.7695H9.097C8.83918 24.6611 8.59602 24.5234 8.37336 24.3534ZM30.9671 27.9775C30.9671 28.3408 30.6741 28.6337 30.3138 28.6337H7.7552C7.39485 28.6337 7.10188 28.3408 7.10188 27.9804V26.0087C7.10188 25.6484 7.39485 25.3554 7.7552 25.3554H8.98274C9.22297 25.4492 9.47493 25.5165 9.72981 25.5605C9.73274 25.5605 9.73567 25.5605 9.7386 25.5634C9.847 25.581 9.95539 25.5956 10.0667 25.6044C10.389 26.1523 10.9866 26.5185 11.6663 26.5185C12.4456 26.5185 13.1136 26.0351 13.389 25.3554H30.3138C30.6741 25.3554 30.9671 25.6484 30.9671 26.0087V27.9775Z" fill="#00435B"/>
</svg>
