<svg width="40" height="40" viewBox="0 0 40 40" fill="none" xmlns="http://www.w3.org/2000/svg">
<rect width="40" height="40" fill="#F77490"/>
<path d="M20.2422 30.0029H17.9453V27.0703H20.2422V30.0029Z" fill="#F65D73"/>
<path d="M19.2422 29.9824V27.0703H20.2412V30.0029" fill="#F04B69"/>
<path d="M11.3799 24.5166C11.2334 24.3701 11.1777 24.1592 11.2304 23.9629C11.2832 23.7666 11.4384 23.6113 11.6377 23.5557C11.8369 23.5029 12.0478 23.5586 12.1914 23.7051C16.0029 27.5166 22.1845 27.5166 25.9961 23.7051C29.8076 19.8936 29.8076 13.7119 25.9961 9.90039C25.7705 9.6748 25.7734 9.31152 25.9961 9.08887C26.2187 8.86621 26.5849 8.86621 26.8076 9.08887C29.9336 12.2061 30.8681 16.8994 29.1777 20.9775C27.4873 25.0557 23.5088 27.7129 19.0966 27.707C16.2021 27.7129 13.4248 26.5645 11.3799 24.5166Z" fill="#F65D73"/>
<path d="M10.5661 25.9048C10.3346 25.9048 10.1237 25.7641 10.0358 25.5503C9.94792 25.3364 9.99479 25.0903 10.1589 24.9233L13.0007 22.0815C13.1442 21.9321 13.3581 21.8735 13.5602 21.9262C13.7624 21.979 13.9176 22.1343 13.9704 22.3364C14.0231 22.5385 13.9645 22.7495 13.8151 22.896L10.9733 25.7378C10.8649 25.8432 10.7184 25.9048 10.5661 25.9048ZM24.2477 11.3384C24.1598 11.1245 24.2067 10.8784 24.3708 10.7114L27.2126 7.8696C27.3561 7.72019 27.57 7.66159 27.7721 7.71433C27.9743 7.76706 28.1296 7.92234 28.1823 8.12449C28.235 8.32663 28.1764 8.53757 28.027 8.68406L25.1852 11.5259C25.0768 11.6343 24.9303 11.6928 24.778 11.6928C24.5436 11.6928 24.3356 11.5551 24.2477 11.3384Z" fill="#F77490"/>
<path d="M13.8818 32.8867H24.3086C24.4902 32.8867 24.6396 32.7373 24.6396 32.5557V32.2773C24.6396 31.0205 23.6113 29.9922 22.3545 29.9922H15.8359C14.5791 29.9922 13.5508 31.0205 13.5508 32.2773V32.5557C13.5508 32.7373 13.7002 32.8867 13.8818 32.8867Z" fill="#F65D73"/>
<path d="M16.9492 29.9844H19.2461V30.0049H16.9492V29.9844Z" fill="#F65D73"/>
<path d="M16.9492 29.9844H20.2451V30.0049H16.9492V29.9844Z" fill="#F65D73"/>
<path d="M27.7256 16.7432C27.7256 21.5098 23.8613 25.374 19.0918 25.374C18.7344 25.374 18.3828 25.3535 18.0371 25.3096L17.6064 25.2451C13.5488 24.5391 10.4609 21 10.4609 16.7402C10.4609 12.7295 13.1973 9.35449 16.9062 8.3877C17.6035 8.20605 18.3389 8.10938 19.0918 8.10938C19.502 8.10938 19.9033 8.13867 20.2988 8.19141C24.4971 8.78027 27.7256 12.3867 27.7256 16.7432Z" fill="#8ADCFF"/>
<path d="M25.8457 11.3613C25.7988 11.3965 25.7695 11.417 25.7695 11.417L25.5762 11.5547C24.9346 12.0059 24.0967 12.0674 23.3965 11.7129C22.3623 11.1885 21.1055 11.707 20.7393 12.8057C20.3672 13.9189 21.085 15.0967 22.2422 15.2783C22.9687 15.3926 23.5605 15.9199 23.7627 16.626C23.915 17.1621 23.9912 17.7158 23.9912 18.2725C23.9912 19.5059 24.9932 20.5078 26.2266 20.5078H26.666L26.833 20.5693C27.4043 19.415 27.7266 18.1143 27.7266 16.7402C27.7266 14.707 27.0234 12.8379 25.8457 11.3613ZM10.8633 14.1328L10.998 14.7305C11.1504 15.4043 11.751 15.8818 12.4424 15.8818L15.501 16.916L14.8506 15.1465C14.7568 14.8916 14.71 14.6221 14.71 14.3496C14.71 13.4824 15.1963 12.6914 15.9668 12.2959L16.3359 12.1084C17.918 11.3027 19.0664 9.84375 19.4795 8.11816C19.3506 8.1123 19.2217 8.10938 19.0928 8.10938C15.2373 8.10938 11.9707 10.6406 10.8633 14.1328ZM15.0762 17.6572C14.4844 18.4512 14.6221 19.5703 15.3896 20.1943L16.4268 21.0439V22.4414L16.9629 23.9531V25.1045L18.8262 23.3057C19.2539 22.8926 19.4971 22.3213 19.4971 21.7266C19.4971 21.4512 19.7197 21.2256 19.998 21.2256C20.2734 21.2256 20.499 21.0029 20.499 20.7246V19.0078C20.499 18.8115 20.3848 18.6357 20.2061 18.5537L18.334 17.6953L17.5693 17.2002C16.749 16.6787 15.6592 16.875 15.0762 17.6572Z" fill="#FDF17F"/>
<path d="M27.7275 16.7324C27.7275 20.8135 24.8945 24.2354 21.0859 25.1348C24.1416 23.418 26.2041 20.1455 26.2041 16.3926C26.2041 13.4746 24.9561 10.8467 22.9668 9.01562C25.7881 10.4336 27.7275 13.3574 27.7275 16.7324Z" fill="#46CDFB"/>
<path d="M27.7246 16.7383C27.7246 18.1152 27.4023 19.4131 26.8311 20.5674L26.6641 20.5059H26.2246C25.9316 20.5059 25.6504 20.4502 25.3955 20.3477C25.917 19.1348 26.2041 17.8018 26.2041 16.3984C26.2041 14.7432 25.8027 13.1816 25.0938 11.8076C25.2637 11.7461 25.4248 11.6611 25.5771 11.5527L25.7705 11.415C25.7705 11.415 25.7998 11.3945 25.8467 11.3594C27.0215 12.8359 27.7246 14.7051 27.7246 16.7383Z" fill="#FAD672"/>
<path d="M24.6396 32.2774V32.5557C24.6396 32.7373 24.4902 32.8867 24.3086 32.8867H22.9346C23.1162 32.8867 23.2656 32.7373 23.2656 32.5557V32.2774C23.2656 31.0205 22.2373 29.9922 20.9805 29.9922H22.3545C23.6113 29.9893 24.6396 31.0176 24.6396 32.2774Z" fill="#F04B69"/>
<path d="M30.1361 14.8898C29.7904 12.8976 28.9173 11.0432 27.6048 9.51386L28.2347 8.88397C28.4574 8.66425 28.5482 8.34198 28.4691 8.04022C28.39 7.73846 28.1527 7.49823 27.848 7.41913C27.5433 7.34003 27.221 7.42792 27.0042 7.6535L24.7952 9.86249C23.5267 8.8078 21.9857 8.11932 20.3392 7.88788C19.9144 7.83514 19.4954 7.80585 19.0911 7.80585C18.3236 7.80585 17.5648 7.90253 16.8324 8.09296C13.8089 8.88104 11.4886 11.1691 10.5833 14.0344C10.3138 14.8898 10.1673 15.7951 10.1673 16.7267C10.1673 18.8098 10.8997 20.8312 12.2269 22.4279L9.95052 24.7101C9.70443 24.9592 9.63118 25.3312 9.76595 25.6535C9.90072 25.9787 10.2142 26.1896 10.5658 26.1896C10.7913 26.1896 11.014 26.0988 11.1781 25.9406L11.181 25.9377L11.8079 25.3107C12.6283 26.0139 13.5452 26.5939 14.5355 27.0334C15.5286 27.4758 16.5745 27.7658 17.6497 27.9035V29.6877H16.9466C16.932 29.6877 16.9202 29.6877 16.9085 29.6906H15.8333C14.4124 29.6906 13.2552 30.8478 13.2552 32.2687V32.5471C13.2552 32.8898 13.5365 33.1711 13.8792 33.1711H24.306C24.6488 33.1711 24.93 32.8898 24.93 32.5471V32.2687C24.93 30.8478 23.7728 29.6906 22.3519 29.6906H20.5326V27.9035C24.5052 27.3937 27.9036 24.8039 29.4447 21.0832C30.2591 19.1232 30.4964 16.9816 30.1361 14.8898ZM27.4202 8.06952L27.4232 8.06659C27.4935 7.99335 27.599 7.96698 27.6986 7.99042C27.7982 8.01678 27.8743 8.09003 27.8978 8.18964C27.9242 8.28925 27.8949 8.39178 27.8187 8.46796L25.6302 10.6564C25.5013 10.5187 25.3695 10.384 25.2318 10.2551L27.4202 8.06952ZM16.8704 25.3752C16.8822 25.3781 16.8968 25.384 16.9085 25.384C17.1224 25.4367 17.3363 25.4836 17.556 25.5217H17.5618L17.9925 25.5861H17.9984C18.347 25.6301 18.7132 25.6535 19.0911 25.6535C21.4759 25.6535 23.7171 24.7248 25.4046 23.0402C26.5326 21.9123 27.3206 20.5353 27.7191 19.0324C27.722 19.0178 27.7279 19.0002 27.7308 18.9855C27.7425 18.9445 27.7513 18.9064 27.7601 18.8654C27.7718 18.8185 27.7835 18.7746 27.7923 18.7277C27.7952 18.7101 27.8011 18.6926 27.804 18.6721C27.8187 18.6105 27.8304 18.549 27.8421 18.4875C27.8421 18.4816 27.8451 18.4758 27.8451 18.4699C27.93 18.048 27.9827 17.6174 28.0033 17.1808V17.1603L28.012 16.9582V16.9318C28.015 16.8644 28.015 16.7941 28.015 16.7267C28.015 16.6594 28.015 16.5949 28.012 16.5275V16.4982C28.012 16.4396 28.0091 16.384 28.0062 16.3254V16.3137C27.9652 15.4289 27.7952 14.5617 27.4993 13.7326C27.2826 13.1232 26.9984 12.5402 26.6556 11.9953C26.6497 11.9865 26.6439 11.9748 26.638 11.966C26.6117 11.925 26.5882 11.8869 26.5618 11.8488C26.5501 11.8283 26.5355 11.8107 26.5238 11.7902C26.5062 11.7639 26.4886 11.7375 26.4681 11.7111C26.4476 11.6818 26.4271 11.6525 26.4066 11.6203C26.4007 11.6086 26.3919 11.5998 26.3861 11.5881C26.2689 11.4211 26.1429 11.257 26.014 11.0988L26.3685 10.7443C29.4827 14.4826 29.2513 20.0226 25.7826 23.4914C23.9398 25.3342 21.514 26.2629 19.0824 26.2629C16.9378 26.2629 14.7874 25.5363 13.0355 24.0773L13.4603 23.6525C14.4593 24.464 15.6224 25.0529 16.8704 25.3752ZM16.6097 20.8107L15.5726 19.9611C14.9251 19.4338 14.8079 18.4963 15.3089 17.8254C15.7982 17.1721 16.721 17.0021 17.4066 17.4387L18.1712 17.9338C18.1829 17.9426 18.1947 17.9484 18.2093 17.9543L20.0814 18.8127C20.1576 18.8478 20.2044 18.9182 20.2044 19.0002V20.717C20.2044 20.8312 20.1107 20.925 19.9964 20.925C19.5599 20.925 19.2025 21.2824 19.2025 21.7189C19.2025 22.2316 18.9915 22.7297 18.6224 23.0871L17.2542 24.4055V23.9455C17.2542 23.9133 17.2484 23.8781 17.2367 23.8488L16.7181 22.384V21.0363C16.7181 20.9484 16.68 20.8664 16.6097 20.8107ZM26.6761 20.2072H26.2249C25.1527 20.2072 24.2826 19.3371 24.2826 18.2648C24.2826 17.6789 24.2005 17.0988 24.0423 16.5363C23.8079 15.7219 23.1195 15.1125 22.2845 14.9807C21.8187 14.9074 21.4085 14.6349 21.1654 14.2307C20.9193 13.8264 20.8665 13.34 21.016 12.8889C21.1624 12.4465 21.4964 12.0891 21.93 11.9103C22.1263 11.8312 22.3314 11.7902 22.5394 11.7902C22.7884 11.7902 23.0374 11.8488 23.266 11.9631C24.0628 12.3674 25.015 12.2971 25.7474 11.7814L25.7884 11.7521C25.7913 11.7551 25.7913 11.758 25.7943 11.7609C25.8206 11.7961 25.847 11.8312 25.8704 11.8664C25.8792 11.881 25.891 11.8957 25.8997 11.9074L25.9613 11.9953C26.8431 13.2756 27.3529 14.7785 27.4232 16.343V16.3517C27.4261 16.4074 27.4261 16.4601 27.429 16.5158V16.5422C27.429 16.6037 27.432 16.6652 27.432 16.7297C27.432 16.8029 27.432 16.8732 27.429 16.9465C27.429 16.9758 27.4261 17.008 27.4261 17.0373C27.4261 17.0783 27.4232 17.1193 27.4202 17.1603C27.4173 17.1984 27.4144 17.2365 27.4144 17.2775C27.4115 17.3098 27.4115 17.342 27.4085 17.3742C27.4056 17.4182 27.4027 17.4592 27.3968 17.5031C27.3939 17.5295 27.391 17.5588 27.388 17.5851C27.3822 17.6291 27.3792 17.676 27.3734 17.7199C27.3704 17.7463 27.3675 17.7697 27.3646 17.7961C27.3587 17.84 27.3529 17.8869 27.347 17.9308C27.3441 17.9572 27.3382 17.9807 27.3353 18.007C27.3294 18.051 27.3206 18.0949 27.3148 18.1359C27.3089 18.1652 27.306 18.1945 27.3001 18.2209C27.2943 18.259 27.2855 18.3 27.2796 18.3381C27.2738 18.3732 27.265 18.4113 27.2591 18.4465C27.2533 18.4787 27.2474 18.508 27.2386 18.5402C27.2269 18.593 27.2152 18.6457 27.2005 18.6984C27.1976 18.7101 27.1947 18.7248 27.1917 18.7365C27.0658 19.2404 26.8958 19.7326 26.6761 20.2072ZM25.3665 11.2365L25.4193 11.298L25.4076 11.3068C24.8538 11.6965 24.1331 11.7492 23.5296 11.4445C22.9613 11.1574 22.2962 11.131 21.7074 11.3713C21.1185 11.6144 20.6644 12.1008 20.4622 12.7043C20.2572 13.3166 20.3333 13.9846 20.6673 14.5353C21.0013 15.0861 21.5609 15.4611 22.1966 15.5607C22.806 15.6574 23.3099 16.1027 23.4798 16.7004C23.6234 17.2072 23.6966 17.7346 23.6966 18.2678C23.6966 19.6623 24.8304 20.7961 26.2249 20.7961H26.3802C26.0081 21.4611 25.5423 22.0793 24.9886 22.6301C23.4124 24.2062 21.3177 25.0734 19.0911 25.0734C18.7425 25.0734 18.3997 25.0529 18.0775 25.0119L17.6527 24.9474C17.6204 24.9416 17.5882 24.9357 17.5589 24.9299L19.0296 23.5119C19.513 23.0461 19.7913 22.3928 19.7913 21.7219C19.7913 21.6076 19.8851 21.5139 19.9993 21.5139C20.4359 21.5139 20.7933 21.1564 20.7933 20.7199V19.0031C20.7933 18.6955 20.6117 18.4113 20.3304 18.2824L18.4788 17.4328L17.7259 16.9465C17.1224 16.5627 16.387 16.5187 15.7601 16.7707L15.1243 15.0392C15.0423 14.8166 15.0013 14.5851 15.0013 14.3449C15.0013 13.5861 15.4232 12.9006 16.097 12.5519L16.4661 12.3644C18.054 11.5558 19.223 10.1262 19.7005 8.41522C19.8822 8.42694 20.0697 8.44745 20.2572 8.47089C22.2318 8.74921 24.0452 9.73065 25.3665 11.2365ZM14.1195 10.0383C15.5638 8.96307 17.2835 8.39471 19.0911 8.39471H19.097C18.64 9.88593 17.5999 11.1281 16.2025 11.84L15.8333 12.0275C14.9603 12.4758 14.4183 13.3635 14.4183 14.342C14.4183 14.6525 14.471 14.9543 14.5765 15.2385L15.016 16.4338L12.5374 15.5959C12.5081 15.5871 12.4759 15.5812 12.4437 15.5812C11.8841 15.5812 11.4066 15.2004 11.2865 14.6584L11.1693 14.1398C11.6966 12.5168 12.7454 11.0637 14.1195 10.0383ZM10.8851 15.2502C11.181 15.7922 11.7464 16.1496 12.391 16.1672L15.1859 17.1105C15.0599 17.216 14.9427 17.3361 14.8402 17.4738C14.1517 18.3967 14.3128 19.6887 15.2035 20.4123L16.1322 21.174V22.4338C16.1322 22.466 16.138 22.5012 16.1497 22.5305L16.6683 23.9953V24.7101C15.1478 24.2473 13.7767 23.3508 12.7337 22.1262C11.4564 20.6232 10.7533 18.7072 10.7533 16.7297C10.7533 16.2258 10.8001 15.7307 10.8851 15.2502ZM10.7679 25.5217C10.7122 25.5744 10.639 25.6037 10.5658 25.6037C10.4544 25.6037 10.349 25.5334 10.305 25.4308C10.2611 25.3254 10.2845 25.2023 10.3636 25.1232L12.6165 22.8703C12.7454 23.008 12.8802 23.1398 13.0179 23.2687L10.7679 25.5217ZM18.2357 27.9621C18.514 27.9826 18.7923 27.9943 19.0677 27.9943H19.0941C19.3783 27.9943 19.6624 27.9855 19.9466 27.9621V29.6877H18.2357V27.9621ZM24.3441 32.2687V32.5471C24.3441 32.5676 24.3265 32.5851 24.306 32.5851H13.8792C13.8587 32.5851 13.8411 32.5676 13.8411 32.5471V32.2687C13.8411 31.1701 14.7347 30.2765 15.8333 30.2765H16.847C16.8792 30.2883 16.9115 30.2941 16.9466 30.2941H20.2425C20.2777 30.2941 20.3099 30.2883 20.3421 30.2765H22.3519C23.4505 30.2765 24.3441 31.1701 24.3441 32.2687ZM28.9056 20.8605C27.4115 24.4611 24.0804 26.9484 20.2103 27.3527C19.8411 27.3908 19.4661 27.4113 19.0941 27.4084C18.722 27.4113 18.3441 27.3908 17.9749 27.3498C16.8675 27.2355 15.7923 26.9455 14.7757 26.4943C13.8499 26.0842 12.9945 25.5451 12.2269 24.8918L12.6253 24.4933C14.4915 26.0695 16.7913 26.8488 19.0853 26.8488C21.6663 26.8488 24.2445 25.8615 26.1986 23.9045C29.8958 20.2072 30.1302 14.298 26.7874 10.3254L27.1859 9.92694C28.4134 11.3713 29.2308 13.1144 29.556 14.9865C29.9017 16.9699 29.6761 19.0002 28.9056 20.8605Z" fill="#00435B"/>
</svg>
