<svg width="40" height="40" viewBox="0 0 40 40" fill="none" xmlns="http://www.w3.org/2000/svg">
<rect width="40" height="40" fill="#A783D3"/>
<path d="M25.8078 31.4492H14.1867C11.8352 31.4492 9.91016 29.5242 9.91016 27.1727V12.8391C9.91016 10.4875 11.8352 8.5625 14.1867 8.5625H25.8078C28.1594 8.5625 30.0844 10.4875 30.0844 12.8391V27.1754C30.0816 29.5242 28.1594 31.4492 25.8078 31.4492Z" fill="#BD9EE2"/>
<path d="M25.252 15.5539H14.7465C13.3273 15.5539 12.168 14.3945 12.168 12.9754V12.8988C12.168 11.4797 13.3273 10.3203 14.7465 10.3203H25.252C26.6711 10.3203 27.8305 11.4797 27.8305 12.8988V12.9754C27.8305 14.3918 26.6711 15.5539 25.252 15.5539ZM14.3254 16.3195H15.8566C16.6277 16.3195 17.2539 16.9457 17.2539 17.7168V19.0621C17.2539 19.8332 16.6277 20.4594 15.8566 20.4594H14.3254C13.5543 20.4594 12.9281 19.8332 12.9281 19.0621V17.7168C12.9281 16.9457 13.5543 16.3195 14.3254 16.3195ZM19.2582 16.3195H20.7402C21.5113 16.3195 22.1375 16.9457 22.1375 17.7168V19.0621C22.1375 19.8332 21.5113 20.4594 20.7402 20.4594H19.2582C18.4871 20.4594 17.8609 19.8332 17.8609 19.0621V17.7168C17.8609 16.9457 18.4871 16.3195 19.2582 16.3195ZM27.0703 17.7168V19.0621C27.0703 19.8332 26.4441 20.4594 25.673 20.4594H24.1418C23.3707 20.4594 22.7445 19.8332 22.7445 19.0621V17.7168C22.7445 16.9457 23.3707 16.3195 24.1418 16.3195H25.673C26.4441 16.3195 27.0703 16.9457 27.0703 17.7168Z" fill="#FDF17F"/>
<path d="M14.323 20.9871H15.8543C16.6254 20.9871 17.2516 21.6133 17.2516 22.3844V23.7297C17.2516 24.5008 16.6254 25.127 15.8543 25.127H14.323C13.552 25.127 12.9258 24.5008 12.9258 23.7297V22.3816C12.9258 21.6105 13.552 20.9871 14.323 20.9871ZM19.2559 20.9871H20.7379C21.509 20.9871 22.1352 21.6133 22.1352 22.3844V23.7297C22.1352 24.5008 21.509 25.127 20.7379 25.127H19.2559C18.4848 25.127 17.8586 24.5008 17.8586 23.7297V22.3816C17.8586 21.6105 18.4848 20.9871 19.2559 20.9871ZM27.068 22.3816V23.727C27.068 24.498 26.4418 25.1242 25.6707 25.1242H24.1395C23.3684 25.1242 22.7422 24.498 22.7422 23.727V22.3816C22.7422 21.6105 23.3684 20.9844 24.1395 20.9844H25.6707C26.4418 20.9871 27.068 21.6105 27.068 22.3816ZM22.1352 27.0137V28.359C22.1352 29.1301 21.509 29.7562 20.7379 29.7562H14.323C13.552 29.7562 12.9258 29.1301 12.9258 28.359V27.0137C12.9258 26.2426 13.552 25.6164 14.323 25.6164H20.7379C21.509 25.6191 22.1352 26.2426 22.1352 27.0137Z" fill="#50E6CC"/>
<path d="M27.0719 27.0145V28.3598C27.0719 29.1309 26.4457 29.757 25.6746 29.757H24.1434C23.3723 29.757 22.7461 29.1309 22.7461 28.3598V27.0145C22.7461 26.2434 23.3723 25.6172 24.1434 25.6172H25.6746C26.4457 25.6199 27.0719 26.2434 27.0719 27.0145Z" fill="#F9CFD5"/>
<path d="M15.3195 14.3359H14.6305V12.0609H14.1602L14.2012 11.4977H15.3195V14.3359ZM16.5965 13.7727H17.9691V14.3004H15.9895V12.7008L17.3484 12.5641L17.332 12.0227H16.0332V11.4949H17.9691L18.0102 13.0426L16.5992 13.1848L16.5965 13.7727ZM20.5914 14.3359H18.6309V13.7672H19.9406V13.1465H18.8195V12.5777H19.9434V12.0609H18.6582V11.4922H20.5914V14.3359Z" fill="#F77490"/>
<path d="M30.0852 12.8391V27.1754C30.0852 29.527 28.1602 31.452 25.8086 31.452H23.8945C26.2461 31.452 28.1711 29.527 28.1711 27.1754V12.8391C28.1711 10.4875 26.2461 8.5625 23.8945 8.5625H25.8086C28.1629 8.5625 30.0852 10.4875 30.0852 12.8391Z" fill="#978CDB"/>
<path d="M27.8332 12.8988V12.9754C27.8332 14.3945 26.6711 15.5539 25.2547 15.5539H24.1609C25.5801 15.5539 26.7395 14.3918 26.7395 12.9754V12.8988C26.7395 11.4797 25.5773 10.3203 24.1609 10.3203H25.2547C26.6738 10.3203 27.8332 11.4797 27.8332 12.8988ZM17.2566 17.7195V19.0648C17.2566 19.8359 16.6305 20.4621 15.8594 20.4621H14.7656C15.5367 20.4621 16.1629 19.8359 16.1629 19.0648V17.7195C16.1629 16.9484 15.5367 16.3223 14.7656 16.3223H15.8594C16.6305 16.3223 17.2566 16.9457 17.2566 17.7195ZM22.1402 17.7195V19.0648C22.1402 19.8359 21.5141 20.4621 20.743 20.4621H19.6492C20.4203 20.4621 21.0465 19.8359 21.0465 19.0648V17.7195C21.0465 16.9484 20.4203 16.3223 19.6492 16.3223H20.743C21.5141 16.3223 22.1402 16.9457 22.1402 17.7195ZM27.073 17.7195V19.0648C27.073 19.8359 26.4469 20.4621 25.6758 20.4621H24.582C25.3531 20.4621 25.9793 19.8359 25.9793 19.0648V17.7195C25.9793 16.9484 25.3531 16.3223 24.582 16.3223H25.6758C26.4469 16.3223 27.073 16.9457 27.073 17.7195Z" fill="#FAD672"/>
<path d="M17.2566 22.3816V23.727C17.2566 24.498 16.6305 25.1242 15.8594 25.1242H14.7656C15.5367 25.1242 16.1629 24.498 16.1629 23.727V22.3816C16.1629 21.6105 15.5367 20.9844 14.7656 20.9844H15.8594C16.6305 20.9871 17.2566 21.6105 17.2566 22.3816ZM22.1402 22.3816V23.727C22.1402 24.498 21.5141 25.1242 20.743 25.1242H19.6492C20.4203 25.1242 21.0465 24.498 21.0465 23.727V22.3816C21.0465 21.6105 20.4203 20.9844 19.6492 20.9844H20.743C21.5141 20.9871 22.1402 21.6105 22.1402 22.3816ZM27.073 22.3816V23.727C27.073 24.498 26.4469 25.1242 25.6758 25.1242H24.582C25.3531 25.1242 25.9793 24.498 25.9793 23.727V22.3816C25.9793 21.6105 25.3531 20.9844 24.582 20.9844H25.6758C26.4469 20.9871 27.073 21.6105 27.073 22.3816ZM22.1402 27.0137V28.359C22.1402 29.1301 21.5141 29.7562 20.743 29.7562H19.6492C20.4203 29.7562 21.0465 29.1301 21.0465 28.359V27.0137C21.0465 26.2426 20.4203 25.6164 19.6492 25.6164H20.743C21.5141 25.6191 22.1402 26.2426 22.1402 27.0137Z" fill="#45DABD"/>
<path d="M27.0691 27.0145V28.3598C27.0691 29.1309 26.443 29.757 25.6719 29.757H24.5781C25.3492 29.757 25.9754 29.1309 25.9754 28.3598V27.0145C25.9754 26.2434 25.3492 25.6172 24.5781 25.6172H25.6719C26.443 25.6199 27.0691 26.2434 27.0691 27.0145Z" fill="#FFACBE"/>
<path d="M29.0207 9.61836C28.1594 8.75703 27.0164 8.28125 25.8078 8.28125H14.1867C12.9754 8.28125 11.8352 8.75703 10.9738 9.61836C10.1125 10.4797 9.63672 11.6227 9.63672 12.8312V27.1648C9.63672 28.3762 10.1125 29.5164 10.9738 30.3777C11.8352 31.2391 12.9781 31.7148 14.1867 31.7148H25.8078C27.0164 31.7148 28.1594 31.2391 29.0207 30.3777C29.882 29.5164 30.3578 28.3762 30.3578 27.1676V12.8312C30.3578 11.6199 29.882 10.4797 29.0207 9.61836ZM29.8109 27.1676C29.8109 28.2313 29.3926 29.2348 28.6324 29.9922C27.875 30.7496 26.8715 31.168 25.8078 31.168H14.1867C13.123 31.168 12.1195 30.7496 11.3594 29.9922C10.602 29.2348 10.1836 28.2285 10.1836 27.1648V12.8312C10.1836 11.7676 10.602 10.7641 11.3594 10.0039C12.1168 9.24375 13.123 8.82812 14.1867 8.82812H25.8078C26.8715 8.82812 27.875 9.24648 28.6352 10.0039C29.3926 10.7613 29.8109 11.7676 29.8109 12.8312V27.1676Z" fill="#00435B"/>
<path d="M25.252 10.0469H14.7465C13.1742 10.0469 11.8945 11.3266 11.8945 12.8988V12.9754C11.8945 14.5477 13.1742 15.8273 14.7465 15.8273H25.252C26.8242 15.8273 28.1039 14.5477 28.1039 12.9754V12.8988C28.1039 11.3266 26.8242 10.0469 25.252 10.0469ZM27.557 12.9754C27.557 14.2469 26.5234 15.2805 25.252 15.2805H14.7465C13.475 15.2805 12.4414 14.2469 12.4414 12.9754V12.8988C12.4414 11.6273 13.475 10.5937 14.7465 10.5937H25.252C26.5234 10.5937 27.557 11.6273 27.557 12.8988V12.9754ZM14.3254 20.4594H15.8566C16.6277 20.4594 17.2539 19.8332 17.2539 19.0621V17.7168C17.2539 16.9457 16.6277 16.3195 15.8566 16.3195H14.3254C13.5543 16.3195 12.9281 16.9457 12.9281 17.7168V19.0621C12.9281 19.8332 13.5543 20.4594 14.3254 20.4594ZM13.475 17.7168C13.475 17.2492 13.8578 16.8664 14.3254 16.8664H15.8566C16.3242 16.8664 16.707 17.2492 16.707 17.7168V19.0621C16.707 19.5297 16.3242 19.9125 15.8566 19.9125H14.3254C13.8578 19.9125 13.475 19.5297 13.475 19.0621V17.7168ZM20.7402 20.4594C21.5113 20.4594 22.1375 19.8332 22.1375 19.0621V17.7168C22.1375 16.9457 21.5113 16.3195 20.7402 16.3195H19.2582C18.4871 16.3195 17.8609 16.9457 17.8609 17.7168V19.0621C17.8609 19.8332 18.4871 20.4594 19.2582 20.4594H20.7402ZM18.4078 19.0621V17.7168C18.4078 17.2492 18.7906 16.8664 19.2582 16.8664H20.7402C21.2078 16.8664 21.5906 17.2492 21.5906 17.7168V19.0621C21.5906 19.5297 21.2078 19.9125 20.7402 19.9125H19.2582C18.7906 19.9125 18.4078 19.5297 18.4078 19.0621ZM25.673 16.3195H24.1418C23.3707 16.3195 22.7445 16.9457 22.7445 17.7168V19.0621C22.7445 19.8332 23.3707 20.4594 24.1418 20.4594H25.673C26.4441 20.4594 27.0703 19.8332 27.0703 19.0621V17.7168C27.0703 16.9457 26.4441 16.3195 25.673 16.3195ZM26.5234 19.0621C26.5234 19.5297 26.1406 19.9125 25.673 19.9125H24.1418C23.6742 19.9125 23.2914 19.5297 23.2914 19.0621V17.7168C23.2914 17.2492 23.6742 16.8664 24.1418 16.8664H25.673C26.1406 16.8664 26.5234 17.2492 26.5234 17.7168V19.0621ZM12.9281 23.727C12.9281 24.498 13.5543 25.1242 14.3254 25.1242H15.8566C16.6277 25.1242 17.2539 24.498 17.2539 23.727V22.3816C17.2539 21.6105 16.6277 20.9844 15.8566 20.9844H14.3254C13.5543 20.9844 12.9281 21.6078 12.9281 22.3789V23.727ZM13.475 22.3789C13.475 21.9113 13.8578 21.5312 14.3254 21.5312H15.8566C16.3242 21.5312 16.707 21.9141 16.707 22.3816V23.727C16.707 24.1945 16.3242 24.5773 15.8566 24.5773H14.3254C13.8578 24.5773 13.475 24.1945 13.475 23.727V22.3789ZM17.8609 23.727C17.8609 24.498 18.4871 25.1242 19.2582 25.1242H20.7402C21.5113 25.1242 22.1375 24.498 22.1375 23.727V22.3816C22.1375 21.6105 21.5113 20.9844 20.7402 20.9844H19.2582C18.4871 20.9844 17.8609 21.6078 17.8609 22.3789V23.727ZM18.4078 22.3789C18.4078 21.9113 18.7906 21.5312 19.2582 21.5312H20.7402C21.2078 21.5312 21.5906 21.9141 21.5906 22.3816V23.727C21.5906 24.1945 21.2078 24.5773 20.7402 24.5773H19.2582C18.7906 24.5773 18.4078 24.1945 18.4078 23.727V22.3789ZM25.673 20.9816H24.1418C23.3707 20.9816 22.7445 21.6078 22.7445 22.3789V23.7242C22.7445 24.4953 23.3707 25.1215 24.1418 25.1215H25.673C26.4441 25.1215 27.0703 24.4953 27.0703 23.7242V22.3789C27.0703 21.6078 26.4441 20.9844 25.673 20.9816ZM26.5234 23.7242C26.5234 24.1918 26.1406 24.5746 25.673 24.5746H24.1418C23.6742 24.5746 23.2914 24.1918 23.2914 23.7242V22.3789C23.2914 21.9113 23.6742 21.5285 24.1418 21.5285H25.673C26.1434 21.5312 26.5234 21.9113 26.5234 22.3789V23.7242ZM20.7402 25.6137H14.3254C13.5543 25.6137 12.9281 26.2398 12.9281 27.0109V28.3562C12.9281 29.1273 13.5543 29.7535 14.3254 29.7535H20.7402C21.5113 29.7535 22.1375 29.1273 22.1375 28.3562V27.0109C22.1375 26.2398 21.5113 25.6164 20.7402 25.6137ZM21.5906 28.3562C21.5906 28.8238 21.2078 29.2066 20.7402 29.2066H14.3254C13.8578 29.2066 13.475 28.8238 13.475 28.3562V27.0109C13.475 26.5434 13.8578 26.1605 14.3254 26.1605H20.7375C21.2078 26.1633 21.5906 26.5434 21.5906 27.0109V28.3562ZM25.673 25.6137H24.1418C23.3707 25.6137 22.7445 26.2398 22.7445 27.0109V28.3562C22.7445 29.1273 23.3707 29.7535 24.1418 29.7535H25.673C26.4441 29.7535 27.0703 29.1273 27.0703 28.3562V27.0109C27.0703 26.2398 26.4441 25.6164 25.673 25.6137ZM26.5234 28.3562C26.5234 28.8238 26.1406 29.2066 25.673 29.2066H24.1418C23.6742 29.2066 23.2914 28.8238 23.2914 28.3562V27.0109C23.2914 26.5434 23.6742 26.1605 24.1418 26.1605H25.673C26.1434 26.1633 26.5234 26.5434 26.5234 27.0109V28.3562Z" fill="#00435B"/>
<path d="M15.3195 14.3359H14.6305V12.0609H14.1602L14.2012 11.4977H15.3195V14.3359ZM16.5965 13.7727H17.9691V14.3004H15.9895V12.7008L17.3484 12.5641L17.332 12.0227H16.0332V11.4949H17.9691L18.0102 13.0426L16.5992 13.1848L16.5965 13.7727ZM20.5914 14.3359H18.6309V13.7672H19.9406V13.1465H18.8195V12.5777H19.9434V12.0609H18.6582V11.4922H20.5914V14.3359Z" fill="#F77490"/>
</svg>
