<svg width="24" height="24" viewBox="0 0 24 24" fill="none" xmlns="http://www.w3.org/2000/svg">
<path d="M3.75 13.5C3.75003 12.9407 3.95838 12.4014 4.33443 11.9874C4.71048 11.5733 5.22726 11.3142 5.784 11.2605L6 11.25H11.25V9H10.5C10.1022 9 9.72064 8.84196 9.43934 8.56066C9.15804 8.27936 9 7.89782 9 7.5V4.5C9 4.10218 9.15804 3.72064 9.43934 3.43934C9.72064 3.15804 10.1022 3 10.5 3H13.5C13.8978 3 14.2794 3.15804 14.5607 3.43934C14.842 3.72064 15 4.10218 15 4.5V7.5C15 7.89782 14.842 8.27936 14.5607 8.56066C14.2794 8.84196 13.8978 9 13.5 9H12.75V11.25H18C18.5593 11.25 19.0986 11.4584 19.5126 11.8344C19.9267 12.2105 20.1858 12.7273 20.2395 13.284L20.25 13.5V15H21C21.3978 15 21.7794 15.158 22.0607 15.4393C22.342 15.7206 22.5 16.1022 22.5 16.5V19.5C22.5 19.8978 22.342 20.2794 22.0607 20.5607C21.7794 20.842 21.3978 21 21 21H18C17.6022 21 17.2206 20.842 16.9393 20.5607C16.658 20.2794 16.5 19.8978 16.5 19.5V16.5C16.5 16.1022 16.658 15.7206 16.9393 15.4393C17.2206 15.158 17.6022 15 18 15H18.75V13.5C18.7501 13.3245 18.6885 13.1545 18.5762 13.0196C18.4638 12.8848 18.3077 12.7936 18.135 12.762L18 12.75H6C5.82446 12.7499 5.65446 12.8115 5.51961 12.9238C5.38476 13.0362 5.2936 13.1923 5.262 13.365L5.25 13.5V15H6C6.39782 15 6.77936 15.158 7.06066 15.4393C7.34196 15.7206 7.5 16.1022 7.5 16.5V19.5C7.5 19.8978 7.34196 20.2794 7.06066 20.5607C6.77936 20.842 6.39782 21 6 21H3C2.60218 21 2.22064 20.842 1.93934 20.5607C1.65804 20.2794 1.5 19.8978 1.5 19.5V16.5C1.5 16.1022 1.65804 15.7206 1.93934 15.4393C2.22064 15.158 2.60218 15 3 15H3.75V13.5ZM13.5 15C13.8978 15 14.2794 15.158 14.5607 15.4393C14.842 15.7206 15 16.1022 15 16.5V19.5C15 19.8978 14.842 20.2794 14.5607 20.5607C14.2794 20.842 13.8978 21 13.5 21H10.5C10.1022 21 9.72064 20.842 9.43934 20.5607C9.15804 20.2794 9 19.8978 9 19.5V16.5C9 16.1022 9.15804 15.7206 9.43934 15.4393C9.72064 15.158 10.1022 15 10.5 15H13.5ZM6 16.5H3V19.5H6V16.5ZM13.5 16.5H10.5V19.5H13.5V16.5ZM21 16.5H18V19.5H21V16.5ZM13.5 4.5H10.5V7.5H13.5V4.5Z" fill="currentColor"/>
</svg>
