<svg width="24" height="24" viewBox="0 0 24 24" fill="none" xmlns="http://www.w3.org/2000/svg">
<path d="M13.9172 20.6781H11.2945L11.0695 20.0617C10.9781 19.8133 10.2937 19.5555 9.29999 19.5555H6.14999C4.81639 19.5555 3.84139 19.2156 3.24842 18.5453C2.70702 17.9313 2.68592 17.268 2.69999 17.0172V6.03203C2.69999 4.97266 3.15467 4.34687 3.53436 4.00703C4.40389 3.23125 5.61795 3.27344 5.93436 3.30156H10.1765C11.0765 3.30156 11.8476 3.59687 12.4055 4.15469C12.607 3.95547 12.8414 3.77969 13.1039 3.63437C13.8469 3.22187 14.5805 3.18203 14.6625 3.17969H18.9586C19.9945 3.17969 20.6273 3.60391 20.9765 3.95781C21.757 4.75234 21.7805 5.83281 21.7805 6.00391V16.7102C21.7805 17.8914 21.307 18.55 20.9109 18.8945C20.1703 19.5367 19.2445 19.5156 18.9515 19.4898H15.2601C14.3578 19.4898 14.1375 19.9 14.0953 20.0055L13.9172 20.6781ZM12.4805 18.8031H12.6375C12.7125 18.7 12.8015 18.5898 12.9094 18.4844C13.3055 18.0883 14.0367 17.6172 15.2601 17.6172H19.0781L19.1226 17.6266C19.2258 17.6359 19.5187 17.6266 19.6828 17.4789C19.8633 17.3172 19.9008 16.9727 19.9008 16.7148V5.99219C19.8984 5.90781 19.8703 5.65 19.7555 5.43672C19.6523 5.24687 19.4765 5.05469 18.9539 5.05469H14.7305C14.6555 5.06172 14.2992 5.10391 13.9711 5.29844C13.7086 5.45547 13.357 5.75547 13.3547 6.54766V6.56172L11.4797 6.55469C11.4797 6.53359 11.468 6.13047 11.2805 5.76484C11.1398 5.49062 10.8867 5.17891 10.1765 5.17891H5.82889L5.78436 5.17188C5.60624 5.15547 5.05311 5.16484 4.77889 5.41094C4.72967 5.45547 4.57499 5.59375 4.57499 6.03203V17.1109L4.57264 17.132C4.58905 17.3969 5.08358 17.6805 6.14764 17.6805H9.27421C9.8203 17.6781 10.3312 17.7344 10.7883 17.8445C11.6484 18.0484 12.1664 18.4188 12.4805 18.8031Z" fill="currentColor"/>
<path d="M11.4634 5.4375H13.3384V13.4766H11.4634V5.4375Z" fill="currentColor"/>
</svg>
