<svg width="24" height="24" viewBox="0 0 24 24" fill="none" xmlns="http://www.w3.org/2000/svg">
<path d="M18.4784 3.41119C18.803 3.41119 19.0676 3.67578 19.0676 4.00035V19.9996C19.0676 20.3242 18.803 20.5888 18.4784 20.5888H5.52375C5.1992 20.5888 4.93459 20.3242 4.93459 19.9996V4.00035C4.93459 3.67578 5.1992 3.41119 5.52377 3.41119H18.4784ZM18.4784 2H5.52375C4.41602 2 3.52344 2.89609 3.52344 4.00035V19.9996C3.52344 21.1039 4.41953 22 5.52379 22H18.4784C19.5827 22 20.4788 21.1039 20.4788 19.9996V4.00035C20.4788 2.89609 19.5827 2 18.4784 2Z" fill="currentColor"/>
<path d="M15.9068 3.41119V7.05203L15.053 6.63574C14.8554 6.54049 14.6332 6.48756 14.4109 6.48756C14.1887 6.48756 13.9664 6.53697 13.7688 6.63574L12.9151 7.04852V3.41119H15.9068ZM16.9863 2H11.839C11.6555 2 11.5038 2.13406 11.5038 2.29988V8.80191C11.5038 8.97477 11.6626 9.10178 11.839 9.10178C11.8919 9.10178 11.9449 9.09119 11.9978 9.0665L14.3862 7.90934C14.3932 7.90582 14.4038 7.90228 14.4144 7.90228C14.425 7.90228 14.4321 7.9058 14.4426 7.90932L16.8311 9.0665C16.8807 9.08989 16.9349 9.10194 16.9898 9.10178C17.1662 9.10178 17.325 8.97477 17.325 8.80191V2.29988C17.3179 2.13406 17.1698 2 16.9863 2ZM16.6124 13.2154H7.38674C6.99865 13.2154 6.68115 12.8979 6.68115 12.5098C6.68115 12.1217 6.99867 11.8042 7.38674 11.8042H16.6124C17.0004 11.8042 17.3179 12.1217 17.3179 12.5098C17.3179 12.8979 17.004 13.2154 16.6124 13.2154ZM12.5093 16.9515H7.38674C6.99865 16.9515 6.68115 16.634 6.68115 16.2459C6.68115 15.8578 6.99867 15.5403 7.38674 15.5403H12.5093C12.8974 15.5403 13.2149 15.8578 13.2149 16.2459C13.2149 16.634 12.8974 16.9515 12.5093 16.9515H12.5093Z" fill="currentColor"/>
</svg>
