<svg width="24" height="24" viewBox="0 0 24 24" fill="none" xmlns="http://www.w3.org/2000/svg">
<g clip-path="url(#clip0_418_8757)">
<path d="M18.25 2C19.2446 2 20.1984 2.39509 20.9017 3.09835C21.6049 3.80161 22 4.75544 22 5.75V18.25C22 19.2446 21.6049 20.1984 20.9017 20.9017C20.1984 21.6049 19.2446 22 18.25 22H5.75C4.75544 22 3.80161 21.6049 3.09835 20.9017C2.39509 20.1984 2 19.2446 2 18.25L2 5.75C2 4.75544 2.39509 3.80161 3.09835 3.09835C3.80161 2.39509 4.75544 2 5.75 2H18.25ZM3.875 8.875V18.25C3.875 18.7473 4.07254 19.2242 4.42417 19.5758C4.77581 19.9275 5.25272 20.125 5.75 20.125H18.25C18.7473 20.125 19.2242 19.9275 19.5758 19.5758C19.9275 19.2242 20.125 18.7473 20.125 18.25V8.875H3.875ZM3.875 7H20.125V5.75C20.125 5.25272 19.9275 4.77581 19.5758 4.42417C19.2242 4.07254 18.7473 3.875 18.25 3.875H5.75C5.25272 3.875 4.77581 4.07254 4.42417 4.42417C4.07254 4.77581 3.875 5.25272 3.875 5.75V7Z" fill="currentColor"/>
<path d="M7 11.375H9.5V17.625H7V11.375Z" fill="currentColor"/>
</g>
<defs>
<clipPath id="clip0_418_8757">
<rect width="20" height="20" fill="white" transform="translate(2 2)"/>
</clipPath>
</defs>
</svg>
