<svg width="24" height="24" viewBox="0 0 24 24" fill="none" xmlns="http://www.w3.org/2000/svg">
<path d="M18.9998 13.9989V15.1689C19.3508 15.2939 19.6718 15.4809 19.9498 15.7189L20.9638 15.1329L21.9638 16.8649L20.9498 17.4509C21.0168 17.8129 21.0168 18.1849 20.9498 18.5469L21.9638 19.1329L20.9638 20.8649L19.9498 20.2789C19.6698 20.5189 19.3478 20.7059 18.9998 20.8289V21.9989H16.9998V20.8289C16.652 20.7056 16.3299 20.5192 16.0498 20.2789L15.0358 20.8649L14.0358 19.1329L15.0498 18.5469C14.9829 18.1846 14.9829 17.8132 15.0498 17.4509L14.0358 16.8649L15.0358 15.1329L16.0498 15.7189C16.3278 15.4809 16.6488 15.2939 16.9998 15.1689V13.9989H18.9998ZM12.4868 1.66892L12.5968 1.74192L21.0268 8.01992C21.2718 8.20192 21.4268 8.47492 21.4628 8.77292L21.4708 8.90292V11.4989H19.4708V9.35292L11.9438 3.74792L4.52981 9.34892V19.4979L11.9998 19.4989V21.4989H3.62981C3.35875 21.4991 3.09719 21.3991 2.89529 21.2183C2.69339 21.0374 2.56538 20.7884 2.53581 20.5189L2.52881 20.3989V8.90192C2.52884 8.75331 2.55898 8.60625 2.61742 8.46961C2.67586 8.33297 2.76137 8.20959 2.86881 8.10692L2.96581 8.02392L11.2768 1.74592C11.4488 1.61594 11.6551 1.53935 11.8702 1.52566C12.0854 1.51197 12.2998 1.56178 12.4868 1.66892ZM17.9998 16.9989C17.7346 16.9989 17.4802 17.1043 17.2927 17.2918C17.1052 17.4793 16.9998 17.7337 16.9998 17.9989C16.9998 18.2641 17.1052 18.5185 17.2927 18.706C17.4802 18.8936 17.7346 18.9989 17.9998 18.9989C18.265 18.9989 18.5194 18.8936 18.7069 18.706C18.8945 18.5185 18.9998 18.2641 18.9998 17.9989C18.9998 17.7337 18.8945 17.4793 18.7069 17.2918C18.5194 17.1043 18.265 16.9989 17.9998 16.9989Z" fill="currentColor"/>
</svg>
