<svg width="24" height="24" viewBox="0 0 24 24" fill="none" xmlns="http://www.w3.org/2000/svg">
<path d="M12.3784 2.28462L21.7214 7.89633C22.0695 8.1054 22.1821 8.55701 21.9731 8.90506C21.9077 9.01384 21.8154 9.10385 21.7049 9.16635C21.5945 9.22884 21.4698 9.26169 21.3429 9.26169H20.3435V20.252H21.0419C21.4749 20.252 21.826 20.6031 21.826 21.0362V21.0362C21.826 21.4693 21.4749 21.8203 21.0419 21.8203H2.95805C2.52499 21.8203 2.17392 21.4693 2.17392 21.0362V21.0362C2.17392 20.6031 2.52499 20.252 2.95805 20.252L3.65639 20.252V9.26166H2.65702C2.25101 9.26166 1.92188 8.93253 1.92188 8.52652C1.92187 8.39963 1.95472 8.2749 2.01721 8.16446C2.07971 8.05403 2.16972 7.96165 2.2785 7.89631L11.6214 2.28462C11.7358 2.21596 11.8666 2.17969 11.9999 2.17969C12.1333 2.17969 12.2641 2.21596 12.3784 2.28462ZM18.7752 9.26166H5.22462V20.252H18.7752V9.26166ZM9.68433 11.6876C10.1174 11.6876 10.4685 12.0387 10.4685 12.4718V17.9118C10.4685 18.3449 10.1174 18.696 9.68433 18.696C9.25127 18.696 8.9002 18.3449 8.9002 17.9119V12.4718C8.9002 12.0387 9.25127 11.6876 9.68433 11.6876ZM14.3156 11.6386C14.7486 11.6386 15.0997 11.9897 15.0997 12.4227V17.8628C15.0997 18.2959 14.7486 18.647 14.3156 18.647C13.8825 18.647 13.5314 18.2959 13.5314 17.8628V12.4227C13.5314 11.9897 13.8825 11.6386 14.3156 11.6386ZM12 3.88672L5.66217 7.69337H18.3377L12 3.88672Z" fill="currentColor"/>
</svg>
