<svg width="20" height="20" viewBox="0 0 20 20" fill="none" xmlns="http://www.w3.org/2000/svg">
<g clip-path="url(#clip0_395_22624)">
<path d="M19.8108 2.52172C19.911 2.643 19.9748 2.79016 19.9948 2.94618C20.0149 3.1022 19.9904 3.26071 19.9241 3.40338L13.9658 16.1995C13.9144 16.3098 13.8395 16.4076 13.7463 16.4859C13.6531 16.5642 13.5439 16.6211 13.4263 16.6527C13.3088 16.6843 13.1857 16.6897 13.0659 16.6686C12.946 16.6475 12.8322 16.6004 12.7324 16.5306L8.14911 13.3317C7.96932 13.2046 7.84712 13.0116 7.8092 12.7947C7.77128 12.5778 7.82072 12.3548 7.94673 12.1742C8.07274 11.9937 8.26507 11.8704 8.48172 11.8312C8.69837 11.792 8.92173 11.8401 9.103 11.9651L12.873 14.5967L17.6758 4.28227L2.86911 7.97394L5.93189 10.0101C6.06151 10.0961 6.21264 10.1442 6.36816 10.1488C6.52369 10.1534 6.6774 10.1144 6.81189 10.0362L11.4158 7.35894C11.6068 7.24777 11.8342 7.21704 12.0479 7.27351C12.2616 7.32998 12.4441 7.46902 12.5552 7.66005C12.6664 7.85108 12.6971 8.07845 12.6407 8.29213C12.5842 8.50582 12.4451 8.68832 12.2541 8.79949L7.65022 11.4773C7.2465 11.7122 6.78502 11.8294 6.31811 11.8154C5.85121 11.8015 5.39754 11.657 5.00856 11.3984L0.374113 8.31616C0.239486 8.22671 0.133778 8.10004 0.0698662 7.95158C0.00595436 7.80312 -0.0134028 7.63927 0.0141526 7.48C0.0417081 7.32073 0.114987 7.17292 0.225062 7.05456C0.335138 6.9362 0.477259 6.8524 0.634113 6.81338L18.9674 2.24338C19.12 2.20543 19.2803 2.21143 19.4296 2.26068C19.5789 2.30994 19.7113 2.40043 19.8113 2.52172H19.8102H19.8108Z" fill="white"/>
<path d="M9.4032 13.4137C9.56437 13.5649 9.65889 13.7739 9.66598 13.9948C9.67306 14.2157 9.59213 14.4303 9.44098 14.5915L6.44264 17.7904C6.32837 17.9125 6.18003 17.9973 6.0169 18.0339C5.85377 18.0706 5.68339 18.0573 5.52791 17.9958C5.37243 17.9344 5.23903 17.8275 5.14506 17.6892C5.05109 17.551 5.00088 17.3876 5.00098 17.2204V14.021C5.00096 13.9115 5.0225 13.8031 5.06437 13.702C5.10625 13.6009 5.16763 13.509 5.24501 13.4316C5.32239 13.3542 5.41426 13.2928 5.51538 13.2509C5.61649 13.2091 5.72486 13.1875 5.83431 13.1875C5.94376 13.1875 6.05213 13.2091 6.15324 13.2509C6.25436 13.2928 6.34623 13.3542 6.42361 13.4316C6.50099 13.509 6.56237 13.6009 6.60425 13.702C6.64612 13.8031 6.66766 13.9115 6.66764 14.021V15.1126L8.22598 13.4515C8.37716 13.2903 8.58617 13.1958 8.80704 13.1887C9.02791 13.1817 9.24255 13.2626 9.40375 13.4137H9.4032Z" fill="white"/>
</g>
<defs>
<clipPath id="clip0_395_22624">
<rect width="20" height="20" fill="white"/>
</clipPath>
</defs>
</svg>
