<svg width="24" height="24" viewBox="0 0 24 24" fill="none" xmlns="http://www.w3.org/2000/svg">
<path d="M8.5873 18.9984H6.21309C5.23105 18.9984 4.43184 18.1242 4.43184 17.0531V6.93281C4.43184 5.86172 5.23105 4.9875 6.21309 4.9875H16.9006C17.8826 4.9875 18.6818 5.86172 18.6818 6.93281V7.90781C18.6818 8.22891 18.949 8.49141 19.2748 8.49141C19.6006 8.49141 19.8678 8.22891 19.8678 7.90781V6.93281C19.8678 5.21719 18.5365 3.82031 16.8982 3.82031H6.21074C4.5748 3.82031 3.24121 5.21719 3.24121 6.93281V17.0531C3.24121 18.7711 4.57246 20.1656 6.21074 20.1656H8.58496C8.91309 20.1656 9.17793 19.9031 9.17793 19.582C9.18262 19.2586 8.91543 18.9984 8.5873 18.9984ZM6.21309 8.48906C5.88496 8.48906 5.62012 8.75156 5.62012 9.07266C5.62012 9.39609 5.88496 9.65625 6.21309 9.65625H10.9639C11.292 9.65625 11.5568 9.39375 11.5568 9.07266C11.5568 8.75156 11.292 8.48906 10.9639 8.48906H6.21309ZM10.3686 12.5766C10.3686 12.2555 10.1037 11.993 9.77559 11.993H6.21309C5.88496 11.993 5.62012 12.2555 5.62012 12.5766C5.62012 12.8977 5.88496 13.1602 6.21309 13.1602H9.77559C10.1037 13.1602 10.3686 12.8977 10.3686 12.5766ZM17.4982 14.243C18.3936 13.6055 18.9771 12.5695 18.9771 11.4023C18.9771 9.47109 17.3787 7.89844 15.4146 7.89844C13.4506 7.89844 11.8521 9.47109 11.8521 11.4023C11.8521 12.5695 12.4357 13.6055 13.3334 14.243C11.442 15.1734 10.0709 17.2289 10.0709 18.9914C10.0709 19.3125 10.3381 19.575 10.6639 19.575C10.992 19.575 11.2568 19.3125 11.2568 18.9914C11.2568 17.3766 13.1178 14.9039 15.4123 14.9039C17.7068 14.9039 19.5678 17.3766 19.5678 18.9914C19.5678 19.3125 19.8326 19.575 20.1607 19.575C20.4889 19.575 20.7537 19.3125 20.7537 18.9914C20.7584 17.2289 19.3896 15.1758 17.4982 14.243ZM15.417 13.7391C14.1068 13.7391 13.0428 12.6937 13.0428 11.4047C13.0428 10.1156 14.1068 9.07031 15.417 9.07031C16.7271 9.07031 17.7912 10.118 17.7912 11.4047C17.7912 12.6914 16.7271 13.7391 15.417 13.7391Z" fill="currentColor"/>
<path d="M8.5875 20.4109H6.21328C4.44141 20.4109 3 18.9039 3 17.0523V6.93437C3 5.08281 4.44141 3.57812 6.21328 3.57812H16.9008C18.6727 3.57812 20.1141 5.08516 20.1141 6.93437V7.90937C20.1141 8.36641 19.7391 8.73672 19.275 8.73672C18.8133 8.73672 18.4359 8.36406 18.4359 7.90937V6.93437C18.4359 5.99687 17.7469 5.23281 16.8984 5.23281H6.21094C5.3625 5.23281 4.67344 5.99687 4.67344 6.93437V17.0547C4.67344 17.9922 5.3625 18.7562 6.21094 18.7562H8.58516C9.04687 18.7562 9.42422 19.1289 9.42422 19.5836C9.42656 20.0406 9.05156 20.4109 8.5875 20.4109ZM6.21328 4.06562C4.71094 4.06562 3.48984 5.35234 3.48984 6.93437V17.0547C3.48984 18.6367 4.71094 19.9234 6.21328 19.9234H8.5875C8.77969 19.9234 8.93672 19.7711 8.93672 19.5836C8.93672 19.3961 8.77969 19.2437 8.5875 19.2437H6.21328C5.09531 19.2437 4.18828 18.2617 4.18828 17.0547V6.93437C4.18828 5.72734 5.09766 4.74531 6.21328 4.74531H16.9008C18.0187 4.74531 18.9258 5.72734 18.9258 6.93437V7.90937C18.9258 8.09687 19.0828 8.24922 19.275 8.24922C19.4672 8.24922 19.6242 8.09687 19.6242 7.90937V6.93437C19.6242 5.35234 18.4031 4.06562 16.9008 4.06562H6.21328ZM20.1656 19.8227C19.7039 19.8227 19.3266 19.45 19.3266 18.9953C19.3266 18.25 18.8742 17.275 18.1734 16.5109C17.707 16.0047 16.7297 15.1516 15.4148 15.1516C14.1 15.1516 13.1227 16.0023 12.6562 16.5109C11.9555 17.275 11.5031 18.25 11.5031 18.9953C11.5031 19.4523 11.1281 19.8227 10.6641 19.8227C10.2023 19.8227 9.825 19.45 9.825 18.9953C9.825 17.2281 11.1187 15.2312 12.8859 14.207C12.0773 13.4992 11.6062 12.4773 11.6062 11.4062C11.6062 9.33906 13.3148 7.65859 15.4125 7.65859C17.5125 7.65859 19.2187 9.33906 19.2187 11.4062C19.2187 12.4773 18.7453 13.4992 17.9391 14.207C19.7062 15.2312 21 17.2281 21 18.9953C21.0047 19.45 20.6273 19.8227 20.1656 19.8227ZM15.4172 14.6641C16.5305 14.6641 17.6391 15.2031 18.5367 16.1805C19.3266 17.043 19.8187 18.1211 19.8187 18.9953C19.8187 19.1828 19.9758 19.3352 20.168 19.3352C20.3602 19.3352 20.5172 19.1828 20.5172 18.9953C20.5172 17.2914 19.1742 15.3437 17.393 14.4648L17.025 14.2844L17.3602 14.0477C18.2227 13.4336 18.7383 12.4469 18.7383 11.4062C18.7383 9.60859 17.25 8.14844 15.4219 8.14844C13.5914 8.14844 12.1031 9.61094 12.1031 11.4062C12.1031 12.4469 12.6187 13.4336 13.4812 14.0477L13.8164 14.2844L13.4484 14.4648C11.6672 15.3414 10.3242 17.2891 10.3242 18.9953C10.3242 19.1828 10.4812 19.3352 10.6734 19.3352C10.8656 19.3352 11.0227 19.1828 11.0227 18.9953C11.0227 18.1211 11.5148 17.043 12.3047 16.1805C13.1953 15.2031 14.3039 14.6641 15.4172 14.6641ZM15.4172 13.9844C13.9734 13.9844 12.7969 12.8266 12.7969 11.4039C12.7969 9.98125 13.9711 8.82344 15.4172 8.82344C16.8609 8.82344 18.0375 9.98125 18.0375 11.4039C18.0375 12.8266 16.8609 13.9844 15.4172 13.9844ZM15.4172 9.31328C14.243 9.31328 13.2867 10.2508 13.2867 11.4039C13.2867 12.557 14.243 13.4945 15.4172 13.4945C16.5914 13.4945 17.5477 12.557 17.5477 11.4039C17.5477 10.2508 16.5914 9.31328 15.4172 9.31328ZM9.77578 13.4055H6.21328C5.75156 13.4055 5.37422 13.0328 5.37422 12.5781C5.37422 12.1211 5.74922 11.7508 6.21328 11.7508H9.77578C10.2375 11.7508 10.6148 12.1234 10.6148 12.5781C10.6148 13.0352 10.2375 13.4055 9.77578 13.4055ZM6.21328 12.2383C6.02109 12.2383 5.86406 12.3906 5.86406 12.5781C5.86406 12.7656 6.02109 12.918 6.21328 12.918H9.77578C9.96797 12.918 10.125 12.7656 10.125 12.5781C10.125 12.3906 9.96797 12.2383 9.77578 12.2383H6.21328ZM10.9641 9.90391H6.21328C5.75156 9.90391 5.37422 9.53125 5.37422 9.07656C5.37422 8.61953 5.74922 8.24922 6.21328 8.24922H10.9641C11.4258 8.24922 11.8031 8.62187 11.8031 9.07656C11.8008 9.53125 11.4258 9.90391 10.9641 9.90391ZM6.21328 8.73437C6.02109 8.73437 5.86406 8.88672 5.86406 9.07422C5.86406 9.26172 6.02109 9.41406 6.21328 9.41406H10.9641C11.1562 9.41406 11.3133 9.26172 11.3133 9.07422C11.3133 8.88672 11.1562 8.73437 10.9641 8.73437H6.21328Z" fill="currentColor"/>
</svg>
