<svg width="24" height="24" viewBox="0 0 24 24" fill="none" xmlns="http://www.w3.org/2000/svg">
<path d="M8.77002 17.4113L9.73046 18.4381V12.3984H9.31846L8.77002 17.4113ZM9.73943 12.3984V18.4381L10.6999 17.4113L10.1514 12.3984H9.73943Z" fill="currentColor"/>
<path d="M20.3916 17.5547H21.6489C22.1827 17.5547 22.4496 17.8216 22.4496 18.3554C22.4496 18.8892 22.1827 19.1562 21.6489 19.1562H20.3916C19.8577 19.1562 19.5908 18.8892 19.5908 18.3554C19.5908 17.8216 19.8577 17.5547 20.3916 17.5547Z" fill="currentColor"/>
<path d="M12.8416 11.3451C14.0158 10.4242 14.7731 8.99427 14.7731 7.39014C14.7731 4.61592 12.5166 2.35938 9.74236 2.35938C6.96814 2.35938 4.71257 4.61689 4.71257 7.39111C4.71257 8.99597 5.47065 10.4239 6.64412 11.3461C3.55242 12.5811 1.35889 15.6025 1.35889 19.1297V20.8068C1.35882 20.9169 1.38046 21.0259 1.42257 21.1277C1.46467 21.2294 1.52642 21.3218 1.60428 21.3997C1.68213 21.4776 1.77457 21.5393 1.87631 21.5814C1.97804 21.6235 2.08708 21.6452 2.19719 21.6451H17.2897C17.3998 21.6452 17.5089 21.6235 17.6106 21.5814C17.7123 21.5393 17.8048 21.4776 17.8826 21.3997C17.9605 21.3218 18.0222 21.2294 18.0643 21.1277C18.1064 21.0259 18.1281 20.9169 18.128 20.8068V19.1297C18.128 15.6015 15.9354 12.5811 12.8416 11.3451ZM9.74357 4.03743C11.5932 4.03743 13.0975 5.54147 13.0975 7.39135C13.0975 9.24123 11.5932 10.745 9.74357 10.745C7.89393 10.745 6.38941 9.24074 6.38941 7.39111C6.38941 5.54147 7.89369 4.03718 9.74333 4.03718L9.74357 4.03743ZM16.4512 19.9683H3.03548V19.1297C3.03548 15.4312 6.04478 12.4221 9.74405 12.4221C13.4433 12.4221 16.4512 15.4312 16.4512 19.1297V19.9683ZM18.8534 11.0431C19.3367 10.5119 19.6752 9.86537 19.8365 9.16557C19.9978 8.46577 19.9764 7.73625 19.7744 7.0471C19.5724 6.35795 19.1966 5.73233 18.683 5.23034C18.1695 4.72836 17.5354 4.36689 16.8418 4.18066C16.6273 4.12364 16.399 4.15398 16.2068 4.26502C16.0146 4.37607 15.8743 4.55876 15.8166 4.77308C15.7588 4.9874 15.7884 5.21586 15.8988 5.4084C16.0093 5.60094 16.1915 5.74187 16.4056 5.8003C16.907 5.93571 17.3543 6.22301 17.6859 6.62276C18.0175 7.02251 18.2173 7.5151 18.2577 8.03292C18.2982 8.55074 18.1774 9.06839 17.9119 9.51481C17.6464 9.96122 17.2493 10.3145 16.775 10.5262C16.6746 10.5697 16.5839 10.6329 16.5084 10.7121C16.5018 10.7196 16.4936 10.7244 16.487 10.7317C16.436 10.7914 16.3938 10.8582 16.3617 10.9299C16.3432 10.9638 16.327 10.9988 16.3133 11.0349C16.3075 11.0538 16.2936 11.0683 16.289 11.0882C16.2808 11.1226 16.289 11.1553 16.2856 11.1897C16.2757 11.2539 16.2735 11.319 16.2791 11.3836C16.284 11.4164 16.2911 11.4488 16.3004 11.4806C16.3118 11.5332 16.3118 11.587 16.3348 11.6379C16.3928 11.7679 16.4833 11.8807 16.5976 11.9656C16.7118 12.0505 16.846 12.1046 16.9873 12.1226C18.0737 12.3929 19.0381 13.0198 19.7262 13.9029C20.4144 14.786 20.7865 15.8743 20.7832 16.9939V18.2909C20.787 18.5108 20.8769 18.7204 21.0338 18.8746C21.1906 19.0288 21.4017 19.1152 21.6216 19.1152C21.8416 19.1152 22.0527 19.0288 22.2095 18.8746C22.3664 18.7204 22.4563 18.5108 22.4601 18.2909V16.9941C22.4601 14.4353 21.037 12.1737 18.8548 11.0429L18.8534 11.0431Z" fill="currentColor"/>
</svg>
