<svg width="16" height="16" viewBox="0 0 16 16" fill="none" xmlns="http://www.w3.org/2000/svg">
<g clip-path="url(#clip0_235_22450)">
<path d="M15.6924 11.6841C15.54 10.1714 14.6199 8.85049 13.2652 8.18441C13.7281 7.82032 14.0752 7.3377 14.2728 6.77887C14.4957 6.14666 14.5099 5.47494 14.3151 4.83144C14.1175 4.19076 13.7309 3.6404 13.1918 3.24244C12.6527 2.84449 12.0149 2.63281 11.3432 2.63281C11.1033 2.63281 10.8634 2.66386 10.6037 2.72595L10.3864 2.77675L10.536 2.94045C10.7476 3.16906 10.9339 3.42308 11.092 3.69402L11.1315 3.76176L11.2105 3.75894C11.2359 3.75894 11.2613 3.75329 11.2839 3.75047C11.3065 3.74765 11.3262 3.74483 11.3432 3.74483C11.8766 3.74483 12.379 3.95368 12.7543 4.32906C13.1325 4.70725 13.3386 5.20681 13.3386 5.74024C13.3386 6.27367 13.1325 6.77605 12.7543 7.15425C12.3761 7.53244 11.8766 7.73847 11.3432 7.73847C11.3234 7.73847 11.3008 7.73565 11.2726 7.73283C11.2528 7.73001 11.2331 7.72719 11.2133 7.72719L11.1315 7.72154L11.092 7.7921C10.9198 8.09127 10.7109 8.37068 10.4682 8.61905L10.1719 8.92387L10.5868 8.83638C10.8097 8.78839 11.0355 8.76582 11.2557 8.76582C12.9434 8.76582 14.3433 10.0331 14.5127 11.7124L14.524 11.8281H15.6896V11.6983L15.6924 11.6841Z" fill="#0A081A" fill-opacity="0.45"/>
<path d="M12.5142 13.037C12.3053 12.4105 11.9977 11.8206 11.6025 11.29C11.2074 10.7566 10.7361 10.2937 10.197 9.90985C9.72001 9.57117 9.20069 9.30022 8.65033 9.10547C9.39544 8.60309 9.96555 7.90032 10.3099 7.06208C10.6881 6.13352 10.7473 5.1344 10.4849 4.16915C10.2224 3.2039 9.66074 2.37131 8.86765 1.7645C8.07175 1.15769 7.12343 0.835938 6.12149 0.835938C5.09979 0.83876 4.09503 1.19156 3.29912 1.83223C2.50039 2.47291 1.93874 3.37325 1.71577 4.37236C1.49281 5.37148 1.61699 6.42705 2.06293 7.34432C2.46935 8.17974 3.1326 8.87404 3.94262 9.3228C2.8927 9.80542 2.00083 10.5618 1.35169 11.5242C0.646097 12.5629 0.276367 13.7737 0.276367 15.0296V15.1595H1.33193V15.0296C1.33193 15.0099 1.33193 14.9929 1.32911 14.976C1.32911 14.9619 1.32629 14.9506 1.32629 14.9421C1.32629 12.1056 3.63216 9.79695 6.46582 9.79413C9.29948 9.79413 11.6053 12.1028 11.6053 14.9393C11.6053 14.9506 11.6053 14.9619 11.6025 14.976C11.6025 14.9929 11.5997 15.0099 11.5997 15.0268V15.1566H12.8359V15.0268C12.8359 14.3494 12.7287 13.6777 12.5142 13.037ZM9.50551 5.36019C9.50551 7.2286 7.98707 8.74703 6.11867 8.74703C4.25026 8.74703 2.73183 7.2286 2.73183 5.36019C2.73183 3.49179 4.25026 1.97335 6.11867 1.97335C7.98707 1.97335 9.50551 3.49179 9.50551 5.36019Z" fill="#0A081A" fill-opacity="0.45"/>
</g>
<defs>
<clipPath id="clip0_235_22450">
<rect width="16" height="16" fill="white"/>
</clipPath>
</defs>
</svg>
