<svg width="16" height="16" viewBox="0 0 16 16" fill="none" xmlns="http://www.w3.org/2000/svg">
<path d="M5.63211 3.25894C5.09611 3.25894 4.56811 3.33094 4.05611 3.46694V8.68294C4.58411 8.57894 5.10411 8.52294 5.63211 8.52294C6.02411 8.52294 6.40811 8.56294 6.80011 8.65894C7.19211 8.74694 7.63211 8.87494 8.12811 9.04294C8.19211 9.06694 8.31211 9.10694 8.48011 9.16294C8.65611 9.21894 8.78411 9.26694 8.86411 9.29094C8.94411 9.31494 9.06411 9.35494 9.21611 9.39494C9.36811 9.44294 9.50411 9.47494 9.60811 9.49094C9.71211 9.51494 9.83211 9.53094 9.96811 9.54694C10.1041 9.56294 10.2321 9.57094 10.3601 9.57094C10.8961 9.57094 11.4241 9.49894 11.9361 9.36294V4.16294C11.4161 4.26694 10.8881 4.32294 10.3601 4.32294C9.96811 4.32294 9.58411 4.27494 9.19211 4.18694C8.80011 4.09894 8.36011 3.97094 7.86411 3.80294L7.50411 3.68294C7.37611 3.64294 7.24811 3.59494 7.12011 3.55494C7.04011 3.53094 6.92011 3.49094 6.76811 3.45094C6.61611 3.41094 6.48011 3.37094 6.37611 3.34694C6.27211 3.33094 6.15211 3.30694 6.01611 3.29094C5.89611 3.27494 5.76811 3.26694 5.63211 3.25894ZM5.63211 2.21094C5.92011 2.21094 6.23211 2.25094 6.56811 2.32294C6.90411 2.39494 7.22411 2.48294 7.53611 2.58694L8.46411 2.89894C8.46411 2.89894 8.78411 2.98694 9.43211 3.16294C9.70411 3.23494 10.1841 3.27494 10.3681 3.27494C10.6641 3.27494 10.9521 3.25894 11.2401 3.21894C11.5281 3.18694 11.7761 3.13894 11.9761 3.09094C12.1761 3.03494 12.3601 2.98694 12.5201 2.93094C12.6801 2.87494 12.8001 2.83494 12.8801 2.80294L12.9921 2.74694V10.1149C12.9681 10.1309 12.9201 10.1469 12.8721 10.1709C12.8161 10.1949 12.7041 10.2349 12.5281 10.2989C12.3441 10.3629 12.1601 10.4109 11.9761 10.4589C11.7841 10.5069 11.5441 10.5469 11.2481 10.5869C10.9521 10.6269 10.6641 10.6429 10.3681 10.6429C10.0801 10.6429 9.76811 10.6029 9.43211 10.5309C9.10411 10.4589 8.78411 10.3709 8.46411 10.2669L7.53611 9.96294L6.56811 9.69894C6.41611 9.65894 6.08011 9.60294 5.63211 9.58694C5.11211 9.58694 4.58411 9.64294 4.05611 9.76294V13.2749C4.05611 13.4189 4.00811 13.5469 3.90411 13.6509C3.80011 13.7549 3.68011 13.8029 3.53611 13.8029C3.39211 13.8029 3.26411 13.7549 3.16811 13.6509C3.06411 13.5469 3.01611 13.4269 3.01611 13.2749V2.73894C3.04011 2.72294 3.08811 2.70694 3.13611 2.68294C3.19211 2.65894 3.30411 2.61894 3.48011 2.55494C3.66411 2.49094 3.84811 2.44294 4.03211 2.39494C4.22411 2.34694 4.46411 2.30694 4.76011 2.26694C5.04811 2.22694 5.33611 2.21094 5.63211 2.21094Z" fill="#0A081A" fill-opacity="0.45"/>
</svg>
