<svg width="28" height="28" viewBox="0 0 28 28" fill="none" xmlns="http://www.w3.org/2000/svg">
<g id="Frame">
<path id="Vector" d="M4.375 2.625H11.1755C11.5197 2.62491 11.8562 2.7263 12.143 2.91648C12.4299 3.10667 12.6542 3.3772 12.7881 3.69425L13.7743 6.0305C13.8413 6.18879 13.9535 6.32383 14.0968 6.41875C14.2401 6.51368 14.4082 6.56428 14.5801 6.56425H23.625C24.0891 6.56425 24.5342 6.74862 24.8624 7.07681C25.1906 7.405 25.375 7.85012 25.375 8.31425V23.625C25.375 24.0891 25.1906 24.5342 24.8624 24.8624C24.5342 25.1906 24.0891 25.375 23.625 25.375H4.375C3.91087 25.375 3.46575 25.1906 3.13756 24.8624C2.80937 24.5342 2.625 24.0891 2.625 23.625V4.375C2.625 3.91087 2.80937 3.46575 3.13756 3.13756C3.46575 2.80937 3.91087 2.625 4.375 2.625ZM4.375 4.375V23.625H23.625V8.31513H14.5801C14.0641 8.315 13.5596 8.1628 13.1296 7.87754C12.6996 7.59228 12.3632 7.18662 12.1625 6.71125L11.1755 4.375H4.375Z" fill="currentColor"/>
<path id="Vector_2" d="M9.625 17.5H18.375C18.9583 17.5 19.25 17.7917 19.25 18.375C19.25 18.9583 18.9583 19.25 18.375 19.25H9.625C9.04167 19.25 8.75 18.9583 8.75 18.375C8.75 17.7917 9.04167 17.5 9.625 17.5Z" fill="currentColor" />
</g>
</svg>
