<svg width="28" height="28" viewBox="0 0 28 28" fill="none" xmlns="http://www.w3.org/2000/svg">
<g id="Frame 238">
<g id="Frame" clip-path="url(#clip0_140_9361)">
<path id="Vector" d="M8.08379 8.60156H19.9158C20.5023 8.60156 20.9771 9.05098 20.9771 9.60449C20.9771 10.158 20.5023 10.6074 19.9158 10.6074H8.08379C7.49727 10.6074 7.02246 10.158 7.02246 9.60449C7.02246 9.05098 7.49727 8.60156 8.08379 8.60156ZM8.08379 13.9996H16.2469C16.8334 13.9996 17.3082 14.449 17.3082 15.0025C17.3082 15.5561 16.8334 16.0055 16.2469 16.0055H8.08379C7.49727 16.0055 7.02246 15.5561 7.02246 15.0025C7.02246 14.449 7.49727 13.9996 8.08379 13.9996ZM12.5424 22.3277C12.5424 21.7742 12.9918 21.3248 13.5453 21.3248C13.8119 21.3248 14.0709 21.4314 14.2588 21.6219L17.3514 24.7449C17.6764 25.0725 18.2045 25.0725 18.532 24.7475L25.2859 17.9936C25.677 17.6025 26.3143 17.6025 26.7053 17.9936C27.0963 18.3846 27.0963 19.0219 26.7053 19.4129L19.9514 26.1668C18.8393 27.2764 17.0391 27.2738 15.9295 26.1617L15.9244 26.1566L12.8318 23.0336C12.6465 22.8457 12.5398 22.5918 12.5424 22.3277Z" fill="currentColor"/>
<path id="Vector_2" d="M26.9568 6.6791C26.9568 5.36133 26.5049 4.14766 25.7508 3.18535C24.7148 1.86758 23.1051 1.01953 21.2998 1.01953H6.65957C4.85176 1.01953 3.24453 1.86504 2.20859 3.18535C1.45195 4.14766 1 5.36133 1 6.6791V21.3193C1 24.4449 3.53398 26.9764 6.65703 26.9764H10.458C11.0166 26.9764 11.4686 26.5244 11.4686 25.9658C11.4686 25.4072 11.0166 24.9553 10.458 24.9553H6.65957C4.65117 24.9553 3.02109 23.3277 3.02109 21.3168V15.5176V6.6791C3.02109 6.30332 3.07949 5.94023 3.18359 5.59746C3.64316 4.11719 5.02441 3.04063 6.65703 3.04063H21.2998C22.9324 3.04063 24.3137 4.11465 24.7732 5.59746C24.8799 5.94023 24.9357 6.30332 24.9357 6.6791V13.5422C24.9434 14.1008 25.4029 14.5451 25.9615 14.5375C26.5201 14.5299 26.9645 14.0703 26.9568 13.5117V6.6791Z" fill="currentColor"/>
</g>
</g>
<defs>
<clipPath id="clip0_140_9361">
<rect width="26" height="26" fill="white" transform="translate(1 1)"/>
</clipPath>
</defs>
</svg>
