<svg width="32" height="32" viewBox="0 0 32 32" fill="none" xmlns="http://www.w3.org/2000/svg">
<g clip-path="url(#clip0_395_22604)">
<path d="M16.1235 2.79688C16.7836 2.79622 17.4212 3.03652 17.9168 3.47265C18.4123 3.90879 18.7316 4.51078 18.8148 5.16564C18.8979 5.8205 18.7392 6.48321 18.3685 7.02936C17.9977 7.57552 17.4403 7.96758 16.801 8.13196L16.7997 9.91122H21.5548C25.0103 9.8665 27.856 12.7515 27.9116 16.371V16.9741L28.3452 16.848C28.4174 16.827 28.4922 16.816 28.5675 16.8155C28.7769 16.8236 28.9748 16.9137 29.1185 17.0663C29.2622 17.2188 29.3402 17.4218 29.3358 17.6313V22.1167C29.3413 22.3312 29.2623 22.5392 29.1157 22.6959C28.9692 22.8526 28.7669 22.9454 28.5526 22.9542C28.46 22.9524 28.3688 22.9321 28.2842 22.8946L27.8913 22.7211L27.814 23.1439C27.2435 26.2783 24.6024 28.5278 21.5534 28.4844H10.3846C8.86745 28.4815 7.40197 27.9332 6.25553 26.9396C5.11601 25.9515 4.35847 24.5957 4.11445 23.1073L4.06702 22.8227H3.44096C3.24218 22.8155 3.05313 22.7349 2.91025 22.5966C2.76737 22.4582 2.68078 22.2718 2.66719 22.0734V17.5283C2.66323 17.3483 2.71985 17.1721 2.82797 17.0281C2.93609 16.8841 3.08945 16.7806 3.26344 16.7342C3.29054 16.7261 3.54123 16.7112 3.69165 16.7071L4.0223 16.7003V16.3683C4.01633 14.6609 4.68561 13.0203 5.88423 11.8043C6.47042 11.2041 7.17087 10.7274 7.94426 10.4023C8.71765 10.0772 9.54832 9.91018 10.3873 9.91122H15.4445V8.13196C14.8052 7.96758 14.2479 7.57552 13.8771 7.02936C13.5063 6.48321 13.3476 5.8205 13.4308 5.16564C13.514 4.51078 13.8333 3.90879 14.3288 3.47265C14.8243 3.03652 15.462 2.79622 16.1221 2.79688H16.1235ZM21.3949 11.9439H10.4591C8.18792 11.9168 6.33006 13.8383 6.29889 16.2315V21.8796C6.30779 23.0183 6.75077 24.1107 7.53746 24.934C8.30988 25.7376 9.37229 26.1861 10.4767 26.1726H21.4003C23.6742 26.1997 25.5361 24.2795 25.5713 21.8836V16.2355C25.5653 15.0964 25.123 14.0028 24.3354 13.1798C23.9565 12.7828 23.4998 12.4682 22.9938 12.2556C22.4879 12.043 21.9436 11.9369 21.3949 11.9439ZM19.5546 15.6989C19.9015 15.6989 20.2335 15.8412 20.4734 16.0932C20.7214 16.3507 20.8609 16.703 20.8596 17.073V20.0488C20.8732 20.4149 20.745 20.7722 20.5018 21.0462C20.3877 21.1744 20.2488 21.278 20.0934 21.3509C19.938 21.4238 19.7695 21.4645 19.598 21.4703C18.8852 21.4866 18.2849 20.8958 18.2605 20.1355V17.0594L18.27 16.9104C18.2962 16.6114 18.4226 16.33 18.6287 16.1119C18.8348 15.8937 19.1085 15.7515 19.4055 15.7084L19.5546 15.6989ZM11.9145 15.7098C12.2587 15.7098 12.5893 15.852 12.8278 16.1027C13.0758 16.3602 13.2154 16.7098 13.2154 17.0743V20.0488C13.2154 20.4147 13.0772 20.767 12.8305 21.0259C12.7126 21.1506 12.5705 21.25 12.4128 21.3181C12.2552 21.3861 12.0854 21.4213 11.9137 21.4216C11.742 21.4218 11.5721 21.3871 11.4143 21.3195C11.2564 21.252 11.114 21.153 10.9957 21.0286C10.7456 20.7639 10.6072 20.413 10.6095 20.0488V17.0703C10.6095 16.7071 10.7491 16.3588 10.9998 16.0973C11.1182 15.9743 11.2603 15.8765 11.4175 15.8099C11.5747 15.7433 11.7437 15.7092 11.9145 15.7098Z" fill="white"/>
</g>
<defs>
<clipPath id="clip0_395_22604">
<rect width="26.6667" height="26.6667" fill="white" transform="translate(2.66699 2.30469)"/>
</clipPath>
</defs>
</svg>
