<svg xmlns="http://www.w3.org/2000/svg" xmlns:xlink="http://www.w3.org/1999/xlink" fill="none" version="1.1" width="32" height="32" viewBox="0 0 32 32"><defs><clipPath id="master_svg0_1580_093801"><rect x="0" y="0" width="32" height="32" rx="0"/></clipPath></defs><g><g clip-path="url(#master_svg0_1580_093801)"><rect x="0" y="0" width="32" height="32" rx="0" fill="#FFFFFF" fill-opacity="0"/><g><ellipse cx="15" cy="11" rx="6" ry="6" fill="#98A1B0" fill-opacity="1"/></g><g><path d="M16.8598,17.698925561489258L18,23.074024651489257L15,25.002594651489257L12,23.074024651489257L13.14017,17.698925521489258C10.680240000000001,17.943934651489258,8.25775,18.676280651489257,6.02166,19.89596465148926C4.775412,20.575734651489256,4,21.88195465148926,4,23.30154465148926L4,26.99869465148926L26,26.99869465148926L26,23.30154465148926C26,21.88195465148926,25.2246,20.575734651489256,23.9783,19.89596465148926C21.7423,18.676280651489257,19.3198,17.943934651489258,16.8598,17.698925561489258Z" fill-rule="evenodd" fill="#98A1B0" fill-opacity="1"/></g><g><path d="M22,7.25L29,7.25Q29.07387,7.25,29.14632,7.264411Q29.21877,7.278822,29.287010000000002,7.30709Q29.35526,7.335359,29.41668,7.376398Q29.4781,7.417437,29.53033,7.46967Q29.58256,7.521903,29.6236,7.583322Q29.66464,7.644742,29.69291,7.712987Q29.72118,7.781233,29.735590000000002,7.853682Q29.75,7.9261315,29.75,8Q29.75,8.0738685,29.735590000000002,8.146318Q29.72118,8.218767,29.69291,8.287013Q29.66464,8.355258,29.6236,8.416678Q29.58256,8.478097,29.53033,8.53033Q29.4781,8.582563,29.41668,8.623602Q29.35526,8.664641,29.287010000000002,8.69291Q29.21877,8.721178,29.14632,8.735589000000001Q29.07387,8.75,29,8.75L22,8.75Q21.9261315,8.75,21.853682,8.735589000000001Q21.781233,8.721178,21.712987,8.69291Q21.644742,8.664641,21.583322,8.623602Q21.521903000000002,8.582563,21.46967,8.53033Q21.417437,8.478097,21.376398000000002,8.416678Q21.335359,8.355258,21.30709,8.287013Q21.278822,8.218767,21.264411,8.146318Q21.25,8.0738685,21.25,8Q21.25,7.9261315,21.264411,7.853682Q21.278822,7.781233,21.30709,7.712987Q21.335359,7.644742,21.376398000000002,7.583322Q21.417437,7.521903,21.46967,7.46967Q21.521903000000002,7.417437,21.583322,7.376398Q21.644742,7.335359,21.712987,7.30709Q21.781233,7.278822,21.853682,7.264411Q21.9261315,7.25,22,7.25Z" fill-rule="evenodd" fill="#98A1B0" fill-opacity="1"/></g><g><path d="M25,10.25L29,10.25Q29.07387,10.25,29.14632,10.264410999999999Q29.21877,10.278822,29.287010000000002,10.30709Q29.35526,10.335359,29.41668,10.376398Q29.4781,10.417437,29.53033,10.46967Q29.58256,10.521903,29.6236,10.583322Q29.66464,10.644742,29.69291,10.712987Q29.72118,10.781233,29.735590000000002,10.853682Q29.75,10.9261315,29.75,11Q29.75,11.0738685,29.735590000000002,11.146318Q29.72118,11.218767,29.69291,11.287013Q29.66464,11.355258,29.6236,11.416678Q29.58256,11.478097,29.53033,11.53033Q29.4781,11.582563,29.41668,11.623602Q29.35526,11.664641,29.287010000000002,11.69291Q29.21877,11.721178,29.14632,11.735589000000001Q29.07387,11.75,29,11.75L25,11.75Q24.9261315,11.75,24.853682,11.735589000000001Q24.781233,11.721178,24.712987,11.69291Q24.644742,11.664641,24.583322,11.623602Q24.521903000000002,11.582563,24.46967,11.53033Q24.417437,11.478097,24.376398000000002,11.416678Q24.335359,11.355258,24.30709,11.287013Q24.278822,11.218767,24.264411,11.146318Q24.25,11.0738685,24.25,11Q24.25,10.9261315,24.264411,10.853682Q24.278822,10.781233,24.30709,10.712987Q24.335359,10.644742,24.376398000000002,10.583322Q24.417437,10.521903,24.46967,10.46967Q24.521903000000002,10.417437,24.583322,10.376398Q24.644742,10.335359,24.712987,10.30709Q24.781233,10.278822,24.853682,10.264410999999999Q24.9261315,10.25,25,10.25Z" fill-rule="evenodd" fill="#98A1B0" fill-opacity="1"/></g><g><path d="M27.72761,14.181902000000001Q27.75,14.0923292,27.75,14Q27.75,13.9261315,27.735590000000002,13.853682Q27.72118,13.781233,27.69291,13.712987Q27.66464,13.644742,27.6236,13.583322Q27.58256,13.521903,27.53033,13.46967Q27.4781,13.417437,27.41668,13.376398Q27.35526,13.335359,27.28701,13.30709Q27.21877,13.278822,27.14632,13.264410999999999Q27.07387,13.25,27,13.25Q26.93771,13.25,26.876269999999998,13.260276Q26.81484,13.270552,26.75594,13.290822Q26.69704,13.311093,26.64229,13.340802Q26.58754,13.370512,26.53844,13.408846Q26.48934,13.44718,26.44724,13.493089Q26.40514,13.538997,26.37119,13.591222Q26.33724,13.643447,26.31237,13.700558000000001Q26.2875,13.757668,26.27239,13.818097999999999L26.2723,13.818468L23.272393,25.8181Q23.25,25.9077,23.25,26Q23.25,26.073900000000002,23.264411,26.1463Q23.278822,26.2188,23.30709,26.287Q23.335359,26.3553,23.376398000000002,26.4167Q23.417437,26.478099999999998,23.46967,26.5303Q23.521903000000002,26.5826,23.583322,26.6236Q23.644742,26.6646,23.712987,26.6929Q23.781233,26.7212,23.853682,26.735599999999998Q23.9261315,26.75,24,26.75Q24.0622903,26.75,24.123727,26.7397Q24.185164,26.7294,24.244064,26.7092Q24.302964,26.6889,24.357713,26.6592Q24.412461,26.6295,24.461559,26.5912Q24.510657,26.552799999999998,24.552758,26.5069Q24.594858,26.461,24.628809,26.4088Q24.662759,26.3566,24.687629,26.2994Q24.712499,26.2423,24.727607,26.1819L27.72751,14.182272L27.72761,14.181902000000001L27.72761,14.181902000000001Z" fill-rule="evenodd" fill="#98A1B0" fill-opacity="1"/></g></g></g></svg>